<?xml version="1.0" encoding="UTF-8"?>
<svg version="1.1" xmlns="http://www.w3.org/2000/svg" width="300" height="329">
<path d="M0 0 C2.75717382 2.45751459 4.32369527 5.12260882 6.08203125 8.35546875 C6.67685303 9.44005371 7.2716748 10.52463867 7.88452148 11.64208984 C8.35497391 12.50746368 8.35497391 12.50746368 8.83493042 13.39031982 C10.51078332 16.47123567 12.20421476 19.54243865 13.8984375 22.61328125 C14.24347824 23.23912109 14.58851898 23.86496094 14.9440155 24.50976562 C18.17729939 30.35613452 21.54260733 36.12112735 24.9375 41.875 C30.37180628 51.11049684 35.63138656 60.43346731 40.8125 69.8125 C41.16746552 70.45322449 41.52243103 71.09394897 41.88815308 71.75408936 C42.89329249 73.57009533 43.89464846 75.38812677 44.89453125 77.20703125 C45.47050049 78.2535083 46.04646973 79.29998535 46.63989258 80.37817383 C48 83 48 83 49 86 C51.01508358 86.73323796 51.01508358 86.73323796 53 87 C52.01 87.495 52.01 87.495 51 88 C51.30067383 88.55123535 51.60134766 89.1024707 51.91113281 89.67041016 C66.046875 115.5859375 66.046875 115.5859375 67.52880859 118.30322266 C68.51044895 120.10262514 69.49254615 121.90177847 70.47509766 123.70068359 C73.11148601 128.52900837 75.73794902 133.36242898 78.3515625 138.203125 C78.89941406 139.21503906 79.44726562 140.22695312 80.01171875 141.26953125 C81.06666726 143.21850393 82.11886697 145.16896765 83.16796875 147.12109375 C83.64105469 147.99378906 84.11414063 148.86648437 84.6015625 149.765625 C85.01744629 150.53680664 85.43333008 151.30798828 85.86181641 152.10253906 C86.98172643 154.14349028 86.98172643 154.14349028 89 156 C90.03161608 157.98387708 91.03523618 159.98276656 92 162 C85.64624888 162.0253261 79.29251074 162.04285678 72.9387207 162.05493164 C70.77660638 162.05996472 68.61449547 162.06679169 66.45239258 162.07543945 C63.34715941 162.08754979 60.2419712 162.09323852 57.13671875 162.09765625 C55.68346443 162.10539818 55.68346443 162.10539818 54.20085144 162.11329651 C53.3001442 162.11337204 52.39943695 162.11344757 51.47143555 162.11352539 C50.67867722 162.115746 49.88591888 162.11796661 49.06913757 162.12025452 C47 162 47 162 44 161 C43.67 161.66 43.34 162.32 43 163 C43 162.34 43 161.68 43 161 C41.96931396 161.04890381 40.93862793 161.09780762 39.87670898 161.14819336 C33.47020168 161.14039049 27.25172137 159.78782074 20.97265625 158.62890625 C19.61572035 158.38398645 18.25865696 158.13977204 16.901474 157.89622498 C13.34470371 157.25643177 9.78939411 156.60888474 6.23443604 155.95910645 C0.55027347 154.92114977 -5.13577356 153.89363563 -10.82232857 152.86887932 C-12.7929794 152.51238412 -14.76282667 152.15145599 -16.73265076 151.79042053 C-23.14842004 150.62770546 -29.50816813 149.6168709 -36 149 C-36 148.01 -36 147.02 -36 146 C-30.35944581 144.57133824 -24.71775378 143.14729428 -19.07495117 141.72753906 C-17.15503376 141.24378546 -15.23543486 140.75876591 -13.31616211 140.27246094 C-10.55925701 139.57414949 -7.80124289 138.88038126 -5.04296875 138.1875 C-4.18350143 137.96876221 -3.32403412 137.75002441 -2.43852234 137.5246582 C-1.63791885 137.32445068 -0.83731537 137.12424316 -0.01245117 136.91796875 C0.6914827 136.74031982 1.39541656 136.5626709 2.12068176 136.37963867 C4 136 4 136 7 136 C7.33 135.34 7.66 134.68 8 134 C10.65234375 133.18359375 10.65234375 133.18359375 13.9375 132.4375 C18.08543635 131.54404902 18.08543635 131.54404902 22 130 C19.96222031 126.20623231 17.91905534 122.41538957 15.875 118.625 C15.30523437 117.56410156 14.73546875 116.50320312 14.1484375 115.41015625 C11.00071563 109.57971688 7.73844102 103.85740768 4.29492188 98.19726562 C2.04978849 94.38765016 0.24847574 90.38031256 -1.60546875 86.37109375 C-2.8322535 83.6906805 -2.8322535 83.6906805 -6 83 C-5.67 82.34 -5.34 81.68 -5 81 C-6.21134893 78.1904352 -6.21134893 78.1904352 -8.0078125 74.99609375 C-8.49155838 74.1001223 -8.49155838 74.1001223 -8.9850769 73.18605042 C-10.02426241 71.26571173 -11.07448476 69.35165998 -12.125 67.4375 C-12.81061864 66.17422014 -13.49552283 64.91055226 -14.1796875 63.64648438 C-14.85152001 62.4088311 -15.52339451 61.17120062 -16.1953125 59.93359375 C-16.52259338 59.32848969 -16.84987427 58.72338562 -17.18707275 58.09994507 C-18.62828628 55.44968078 -20.09994148 52.837239 -21.67871094 50.26611328 C-25.10458913 44.65516207 -25.10458913 44.65516207 -24.5859375 41.40625 C-24.06257812 40.6121875 -23.53921875 39.818125 -23 39 C-22.35289062 37.8553125 -21.70578125 36.710625 -21.0390625 35.53125 C-20.23746377 34.18565515 -19.4325733 32.84201766 -18.625 31.5 C-13.93097043 23.62126948 -9.36723635 15.67361737 -4.84814453 7.69335938 C-4.36071777 6.83548828 -3.87329102 5.97761719 -3.37109375 5.09375 C-2.93724365 4.32740234 -2.50339355 3.56105469 -2.05639648 2.77148438 C-1 1 -1 1 0 0 Z " fill="#0077C8" transform="translate(187,91)"/>
<path d="M0 0 C1.32114304 0.0001133 1.32114304 0.0001133 2.66897583 0.00022888 C3.62109955 0.00539017 4.57322327 0.01055145 5.55419922 0.01586914 C7.01489334 0.01799156 7.01489334 0.01799156 8.50509644 0.02015686 C11.62305745 0.02576566 14.74094732 0.03831966 17.85888672 0.05102539 C19.96956277 0.05603926 22.08023994 0.06060236 24.19091797 0.06469727 C29.37193193 0.07573794 34.55290424 0.09248466 39.73388672 0.11352539 C39.73388672 5.10105145 37.78384664 7.97008793 35.29638672 12.11352539 C34.81556641 12.92950195 34.33474609 13.74547852 33.83935547 14.58618164 C28.64126681 23.36603785 23.31165505 32.06872873 17.99804688 40.77905273 C13.97167446 47.38518805 10.0092462 54.02060972 6.17138672 60.73852539 C1.7694243 68.42851558 -2.81486008 76.00222345 -7.45361328 83.55102539 C-8.10724854 84.61724121 -8.76088379 85.68345703 -9.43432617 86.78198242 C-12.7363084 92.13423138 -16.09017097 97.45159405 -19.52001953 102.72290039 C-20.14851807 103.69066406 -20.7770166 104.65842773 -21.42456055 105.65551758 C-24.18593716 109.34125797 -27.22618794 111.07288051 -31.26611328 113.11352539 C-33.39446295 114.37874081 -35.51929096 115.64989359 -37.64111328 116.92602539 C-43.01024974 120.11352539 -43.01024974 120.11352539 -45.26611328 120.11352539 C-45.59611328 120.77352539 -45.92611328 121.43352539 -46.26611328 122.11352539 C-47.77878175 122.99840655 -49.32828617 123.82058656 -50.89111328 124.61352539 C-57.08723752 127.90471346 -62.81391121 131.72825017 -68.61376953 135.65649414 C-71.76962475 137.7930567 -74.97234517 139.8423022 -78.20361328 141.86352539 C-85.38291975 146.40510148 -91.87850915 151.52437177 -98.26611328 157.11352539 C-97.71178881 152.16283441 -95.43782024 148.64580562 -92.89111328 144.48852539 C-91.96845832 142.9525353 -91.04661088 141.41605991 -90.12548828 139.87915039 C-89.64917969 139.08831055 -89.17287109 138.2974707 -88.68212891 137.48266602 C-86.45724147 133.76019917 -84.30190239 129.99842813 -82.14111328 126.23852539 C-72.68998942 109.85910133 -63.00470255 93.61081731 -53.25048828 77.41040039 C-51.5494388 74.58424731 -49.85471964 71.75440529 -48.16186523 68.92333984 C-37.31030444 50.79338263 -26.28295297 32.77211907 -15.01660156 14.89672852 C-13.78370013 12.93646682 -12.55884221 10.9711347 -11.33984375 9.00219727 C-10.71609863 8.0025293 -10.09235352 7.00286133 -9.44970703 5.97290039 C-8.60557251 4.61116699 -8.60557251 4.61116699 -7.74438477 3.22192383 C-5.46958271 -0.02253373 -3.75902234 -0.01074006 0 0 Z " fill="#AFB7BD" transform="translate(142.26611328125,79.886474609375)"/>
<path d="M0 0 C0.90878906 1.65322266 0.90878906 1.65322266 1.8359375 3.33984375 C2.68195558 4.87258139 3.5283379 6.40511801 4.375 7.9375 C4.8181958 8.74203613 5.2613916 9.54657227 5.71801758 10.37548828 C8.04720193 14.57810246 10.42245913 18.73822735 12.92578125 22.83984375 C13.38871582 23.60240479 13.85165039 24.36496582 14.32861328 25.15063477 C15.22139906 26.61203815 16.12445455 28.06722633 17.03857422 29.51538086 C20.0198181 34.40973833 20.0198181 34.40973833 19.92993164 37.08691406 C19 39 19 39 16.81152344 40.14990234 C15.83731445 40.45879395 14.86310547 40.76768555 13.859375 41.0859375 C12.74643066 41.45138672 11.63348633 41.81683594 10.48681641 42.19335938 C9.25366699 42.58330078 8.02051758 42.97324219 6.75 43.375 C4.06160068 44.25779586 1.37832878 45.15568153 -1.3046875 46.0546875 C-2.01223175 46.29052551 -2.719776 46.52636353 -3.44876099 46.76934814 C-11.50293396 49.47105939 -19.43918784 52.47129386 -27.375 55.5 C-28.12196136 55.78450012 -28.86892273 56.06900024 -29.63851929 56.36212158 C-33.63633417 57.88527582 -37.6324568 59.41279806 -41.62744141 60.94335938 C-46.5498843 62.82894705 -51.47532482 64.70660995 -56.40118408 66.58325195 C-60.72548836 68.23111381 -65.04893195 69.88122432 -69.37213135 71.53198242 C-71.49007125 72.34056861 -73.60819317 73.14867821 -75.72650146 73.95629883 C-78.69477796 75.08855642 -81.66198493 76.22357191 -84.62890625 77.359375 C-85.51885788 77.69833801 -86.40880951 78.03730103 -87.32572937 78.38653564 C-88.14837784 78.70209412 -88.97102631 79.01765259 -89.81860352 79.34277344 C-90.8903054 79.7524234 -90.8903054 79.7524234 -91.98365784 80.17034912 C-94.04691588 80.98300223 -94.04691588 80.98300223 -96.1190033 82.11090088 C-98.84889408 83.40125056 -100.13696061 82.92833128 -103 82 C-105.59527969 80.74885055 -108.07490963 79.32656535 -110.5625 77.875 C-111.26270264 77.47410156 -111.96290527 77.07320313 -112.68432617 76.66015625 C-118.03139993 73.59111494 -123.34828216 70.46833394 -128.64453125 67.3125 C-131.03404929 65.88557632 -131.03404929 65.88557632 -134 65 C-131.63176441 57.89529324 -120.33260899 54.03975586 -113.97265625 50.640625 C-110.65371417 48.80888298 -107.42211135 46.84977415 -104.1875 44.875 C-77.47446733 28.68052901 -50.03528721 16.40472644 -20.34545898 6.7890625 C-14.79099848 4.98171519 -9.37114319 3.00675842 -3.98510742 0.74316406 C-2 0 -2 0 0 0 Z " fill="#004DAC" transform="translate(175,177)"/>
<path d="M0 0 C2.75717382 2.45751459 4.32369527 5.12260882 6.08203125 8.35546875 C6.67685303 9.44005371 7.2716748 10.52463867 7.88452148 11.64208984 C8.35497391 12.50746368 8.35497391 12.50746368 8.83493042 13.39031982 C10.51078332 16.47123567 12.20421476 19.54243865 13.8984375 22.61328125 C14.24347824 23.23912109 14.58851898 23.86496094 14.9440155 24.50976562 C18.17729939 30.35613452 21.54260733 36.12112735 24.9375 41.875 C30.37180628 51.11049684 35.63138656 60.43346731 40.8125 69.8125 C41.16746552 70.45322449 41.52243103 71.09394897 41.88815308 71.75408936 C42.89329249 73.57009533 43.89464846 75.38812677 44.89453125 77.20703125 C45.47050049 78.2535083 46.04646973 79.29998535 46.63989258 80.37817383 C48 83 48 83 49 86 C51.01508358 86.73323796 51.01508358 86.73323796 53 87 C52.01 87.495 52.01 87.495 51 88 C51.30067383 88.55123535 51.60134766 89.1024707 51.91113281 89.67041016 C66.046875 115.5859375 66.046875 115.5859375 67.52880859 118.30322266 C68.51044895 120.10262514 69.49254615 121.90177847 70.47509766 123.70068359 C73.11148601 128.52900837 75.73794902 133.36242898 78.3515625 138.203125 C78.89941406 139.21503906 79.44726562 140.22695312 80.01171875 141.26953125 C81.06666726 143.21850393 82.11886697 145.16896765 83.16796875 147.12109375 C83.64105469 147.99378906 84.11414063 148.86648437 84.6015625 149.765625 C85.01744629 150.53680664 85.43333008 151.30798828 85.86181641 152.10253906 C86.98172643 154.14349028 86.98172643 154.14349028 89 156 C90.03161608 157.98387708 91.03523618 159.98276656 92 162 C85.64624888 162.0253261 79.29251074 162.04285678 72.9387207 162.05493164 C70.77660638 162.05996472 68.61449547 162.06679169 66.45239258 162.07543945 C63.34715941 162.08754979 60.2419712 162.09323852 57.13671875 162.09765625 C55.68346443 162.10539818 55.68346443 162.10539818 54.20085144 162.11329651 C53.3001442 162.11337204 52.39943695 162.11344757 51.47143555 162.11352539 C50.67867722 162.115746 49.88591888 162.11796661 49.06913757 162.12025452 C47 162 47 162 44 161 C43.67 161.66 43.34 162.32 43 163 C43 162.34 43 161.68 43 161 C41.96931396 161.04890381 40.93862793 161.09780762 39.87670898 161.14819336 C33.47020168 161.14039049 27.25172137 159.78782074 20.97265625 158.62890625 C19.61572035 158.38398645 18.25865696 158.13977204 16.901474 157.89622498 C13.34470371 157.25643177 9.78939411 156.60888474 6.23443604 155.95910645 C0.55027347 154.92114977 -5.13577356 153.89363563 -10.82232857 152.86887932 C-12.7929794 152.51238412 -14.76282667 152.15145599 -16.73265076 151.79042053 C-23.14842004 150.62770546 -29.50816813 149.6168709 -36 149 C-36 148.01 -36 147.02 -36 146 C-30.35944581 144.57133824 -24.71775378 143.14729428 -19.07495117 141.72753906 C-17.15503376 141.24378546 -15.23543486 140.75876591 -13.31616211 140.27246094 C-10.55925701 139.57414949 -7.80124289 138.88038126 -5.04296875 138.1875 C-4.18350143 137.96876221 -3.32403412 137.75002441 -2.43852234 137.5246582 C-1.63791885 137.32445068 -0.83731537 137.12424316 -0.01245117 136.91796875 C0.6914827 136.74031982 1.39541656 136.5626709 2.12068176 136.37963867 C4 136 4 136 7 136 C7.33 135.34 7.66 134.68 8 134 C10.65234375 133.18359375 10.65234375 133.18359375 13.9375 132.4375 C18.08543635 131.54404902 18.08543635 131.54404902 22 130 C21.6918335 129.4652002 21.38366699 128.93040039 21.06616211 128.37939453 C19.68160814 125.96593258 18.30944614 123.54564928 16.9375 121.125 C16.45216797 120.28324219 15.96683594 119.44148438 15.46679688 118.57421875 C15.01240234 117.76855469 14.55800781 116.96289062 14.08984375 116.1328125 C13.45357056 115.01737061 13.45357056 115.01737061 12.80444336 113.87939453 C12.53897705 113.25919434 12.27351074 112.63899414 12 112 C12.33 111.34 12.66 110.68 13 110 C13.45375 110.804375 13.9075 111.60875 14.375 112.4375 C15.74725665 115.08856572 15.74725665 115.08856572 18 116 C18 116.66 18 117.32 18 118 C18.66 118 19.32 118 20 118 C20 118.99 20 119.98 20 121 C20.99 121.495 20.99 121.495 22 122 C23.12838528 124.46834281 23.97616423 126.91526515 24.7109375 129.52734375 C26.52774047 134.42170085 29.07113756 138.83119907 31.625 143.375 C32.140625 144.30183594 32.65625 145.22867188 33.1875 146.18359375 C34.45382811 148.45829425 35.72475925 150.73028792 37 153 C37.99 152.67 38.98 152.34 40 152 C40.66 152.99 41.32 153.98 42 155 C41.67 155.66 41.34 156.32 41 157 C42.0058313 156.99214478 42.0058313 156.99214478 43.03198242 156.98413086 C46.083812 156.96328395 49.13562656 156.95031531 52.1875 156.9375 C53.24259766 156.92912109 54.29769531 156.92074219 55.38476562 156.91210938 C56.40634766 156.90888672 57.42792969 156.90566406 58.48046875 156.90234375 C59.41785889 156.89710693 60.35524902 156.89187012 61.32104492 156.88647461 C64 157 64 157 66.7199707 157.56860352 C69.02026412 158.24224239 69.02026412 158.24224239 71 157 C68.25565844 149.75798754 64.02784214 143.47550641 59.66381836 137.10839844 C54.73639778 129.89237101 50.26272168 122.4675312 45.9375 114.875 C45.36507568 113.87895752 44.79265137 112.88291504 44.20288086 111.85668945 C43.40442749 110.43876099 43.40442749 110.43876099 42.58984375 108.9921875 C42.11409912 108.15026855 41.63835449 107.30834961 41.14819336 106.44091797 C39.9749603 103.94676867 39.41957017 101.71493711 39 99 C41.41763491 101.21251288 42.91590741 103.39479316 44.453125 106.28125 C45.13024536 107.53760254 45.13024536 107.53760254 45.82104492 108.81933594 C46.2926001 109.70395508 46.76415527 110.58857422 47.25 111.5 C51.23230522 118.86802527 55.32552513 126.04412613 60 133 C59.55527344 132.22914063 59.11054688 131.45828125 58.65234375 130.6640625 C58.08644531 129.66117188 57.52054687 128.65828125 56.9375 127.625 C56.08478516 126.12839844 56.08478516 126.12839844 55.21484375 124.6015625 C54.81394531 123.74304688 54.41304688 122.88453125 54 122 C55 120 55 120 57.5 118.1875 C60.10516775 116.25443421 60.10516775 116.25443421 60.84912109 113.75512695 C61.05688611 109.96123017 59.7851603 108.01988502 57.9140625 104.73046875 C57.58193756 104.13724319 57.24981262 103.54401764 56.90762329 102.93281555 C55.82681463 101.00977941 54.72626288 99.09888319 53.625 97.1875 C52.87465886 95.86142182 52.12563902 94.53459515 51.37792969 93.20703125 C49.91286588 90.61066858 48.44040122 88.01877779 46.95996094 85.43115234 C45.04033449 82.07061047 43.14660511 78.6969333 41.26342773 75.31591797 C39.52525465 72.2013597 37.762579 69.10079185 36 66 C35.54705566 65.20223145 35.09411133 64.40446289 34.62744141 63.58251953 C29.04878583 53.76430615 23.42141937 43.97983635 17.66186523 34.26660156 C14.11937304 28.26489998 10.73375999 22.18051798 7.39794922 16.06176758 C5.11211796 11.89362717 2.69963063 7.91384807 0 4 C-0.27150879 4.49290527 -0.54301758 4.98581055 -0.82275391 5.49365234 C-12.16501405 26.06139873 -12.16501405 26.06139873 -17.73046875 34.6796875 C-18.29378906 35.56914063 -18.85710937 36.45859375 -19.4375 37.375 C-19.95183594 38.16648438 -20.46617187 38.95796875 -20.99609375 39.7734375 C-22.23147419 42.51338635 -21.92798996 43.19564509 -21 46 C-20.19028046 47.73885437 -19.33298489 49.45586828 -18.4453125 51.15625 C-17.91760254 52.17001709 -17.38989258 53.18378418 -16.84619141 54.22827148 C-16.27819824 55.30794189 -15.71020508 56.3876123 -15.125 57.5 C-14.5479834 58.60609619 -13.9709668 59.71219238 -13.37646484 60.85180664 C-10.53227006 66.27961468 -7.64457102 71.67742894 -4.65625 77.02734375 C-3.88837158 78.40212891 -3.88837158 78.40212891 -3.10498047 79.8046875 C-2.13267242 81.53437571 -1.15274261 83.25980575 -0.16455078 84.98046875 C0.26873535 85.74875 0.70202148 86.51703125 1.1484375 87.30859375 C1.53177246 87.97689209 1.91510742 88.64519043 2.31005859 89.33374023 C2.53773926 89.88360596 2.76541992 90.43347168 3 91 C2.67 91.66 2.34 92.32 2 93 C1.67386719 92.36191406 1.34773438 91.72382813 1.01171875 91.06640625 C0.57472656 90.24011719 0.13773438 89.41382813 -0.3125 88.5625 C-0.74175781 87.73878906 -1.17101562 86.91507812 -1.61328125 86.06640625 C-2.90020887 83.69352356 -2.90020887 83.69352356 -6 83 C-5.67 82.34 -5.34 81.68 -5 81 C-6.21134893 78.1904352 -6.21134893 78.1904352 -8.0078125 74.99609375 C-8.49155838 74.1001223 -8.49155838 74.1001223 -8.9850769 73.18605042 C-10.02426241 71.26571173 -11.07448476 69.35165998 -12.125 67.4375 C-12.81061864 66.17422014 -13.49552283 64.91055226 -14.1796875 63.64648438 C-14.85152001 62.4088311 -15.52339451 61.17120062 -16.1953125 59.93359375 C-16.52259338 59.32848969 -16.84987427 58.72338562 -17.18707275 58.09994507 C-18.62828628 55.44968078 -20.09994148 52.837239 -21.67871094 50.26611328 C-25.10458913 44.65516207 -25.10458913 44.65516207 -24.5859375 41.40625 C-24.06257812 40.6121875 -23.53921875 39.818125 -23 39 C-22.35289062 37.8553125 -21.70578125 36.710625 -21.0390625 35.53125 C-20.23746377 34.18565515 -19.4325733 32.84201766 -18.625 31.5 C-13.93097043 23.62126948 -9.36723635 15.67361737 -4.84814453 7.69335938 C-4.36071777 6.83548828 -3.87329102 5.97761719 -3.37109375 5.09375 C-2.93724365 4.32740234 -2.50339355 3.56105469 -2.05639648 2.77148438 C-1 1 -1 1 0 0 Z " fill="#001B67" transform="translate(187,91)"/>
<path d="M0 0 C-0.62229492 0.3309668 -1.24458984 0.66193359 -1.88574219 1.00292969 C-26.54102057 14.14939555 -49.90724845 27.60054334 -71 46 C-71.7734375 46.66128906 -72.546875 47.32257813 -73.34375 48.00390625 C-75.2528584 49.6450052 -77.13440625 51.30969694 -79 53 C-79.81791016 53.73669922 -79.81791016 53.73669922 -80.65234375 54.48828125 C-85.92128346 59.48447584 -90.22652082 65.24996388 -94.64453125 70.98828125 C-97 74 -97 74 -99 76 C-105.95730503 75.99071121 -111.28367872 72.43108192 -117.1875 69.0625 C-119.13914411 67.96973267 -121.09096024 66.8772725 -123.04296875 65.78515625 C-123.89914795 65.29926025 -124.75532715 64.81336426 -125.63745117 64.31274414 C-127.73353596 63.14806006 -129.8459284 62.05261075 -132 61 C-129.63176441 53.89529324 -118.33260899 50.03975586 -111.97265625 46.640625 C-108.65371417 44.80888298 -105.42211135 42.84977415 -102.1875 40.875 C-63.721411 17.55537283 -63.721411 17.55537283 -46.25390625 13.82421875 C-42.06575902 12.76335553 -38.10033877 11.27641981 -34.0625 9.75 C-26.90959202 7.06058209 -19.73453088 4.46255306 -12.5 2 C-11.59773682 1.68514648 -10.69547363 1.37029297 -9.76586914 1.04589844 C-8.50504517 0.62099121 -8.50504517 0.62099121 -7.21875 0.1875 C-6.47560547 -0.06644531 -5.73246094 -0.32039062 -4.96679688 -0.58203125 C-3 -1 -3 -1 0 0 Z " fill="#8E98A1" transform="translate(173,181)"/>
<path d="M0 0 C3.03912703 3.57661457 5.24587177 7.13613308 7.375 11.3125 C10.95973095 18.20742397 14.8168184 24.92358891 18.75 31.625 C19.97530658 33.71481668 21.20056689 35.8046605 22.42578125 37.89453125 C23.0285791 38.92271973 23.63137695 39.9509082 24.25244141 41.01025391 C32.23206719 54.66190203 39.97743861 68.44694466 47.60693359 82.296875 C50.34490045 87.26225547 53.0928435 92.20777863 56.0234375 97.0625 C56.45954346 97.7949292 56.89564941 98.5273584 57.3449707 99.28198242 C58.12583151 100.58425218 58.92259672 101.87719203 59.73901367 103.1574707 C61.60143816 106.28779543 62.05113006 107.71293644 61.40234375 111.35546875 C60 114 60 114 57 115 C55.84188612 117.94729537 55.84188612 117.94729537 56 121 C57.22485534 123.14031815 58.60769684 125.12827427 60.00390625 127.16015625 C60.49697266 128.07087891 60.49697266 128.07087891 61 129 C60.67 129.66 60.34 130.32 60 131 C35.51089053 94.98472558 13.41161649 49.80789859 1.61767578 7.92260742 C1.16589282 6.01358193 1.16589282 6.01358193 0 5 C-0.04063832 3.33382885 -0.042721 1.66611905 0 0 Z " fill="#45C6F9" transform="translate(187,94)"/>
<path d="M0 0 C2.75717382 2.45751459 4.32369527 5.12260882 6.08203125 8.35546875 C6.67685303 9.44005371 7.2716748 10.52463867 7.88452148 11.64208984 C8.35497391 12.50746368 8.35497391 12.50746368 8.83493042 13.39031982 C10.51078332 16.47123567 12.20421476 19.54243865 13.8984375 22.61328125 C14.24347824 23.23912109 14.58851898 23.86496094 14.9440155 24.50976562 C18.17729939 30.35613452 21.54260733 36.12112735 24.9375 41.875 C30.37180628 51.11049684 35.63138656 60.43346731 40.8125 69.8125 C41.16746552 70.45322449 41.52243103 71.09394897 41.88815308 71.75408936 C42.89329249 73.57009533 43.89464846 75.38812677 44.89453125 77.20703125 C45.47050049 78.2535083 46.04646973 79.29998535 46.63989258 80.37817383 C48 83 48 83 49 86 C51.01508358 86.73323796 51.01508358 86.73323796 53 87 C52.01 87.495 52.01 87.495 51 88 C51.52170776 88.95253662 51.52170776 88.95253662 52.05395508 89.92431641 C53.64126004 92.82393097 55.22689377 95.72445619 56.8125 98.625 C57.63331055 100.12353516 57.63331055 100.12353516 58.47070312 101.65234375 C65.57813425 114.66109647 65.57813425 114.66109647 66.87109375 118.76464844 C68.0698291 122.2001244 69.57889602 125.22544251 71.30078125 128.4296875 C71.61903366 129.02371368 71.93728607 129.61773987 72.2651825 130.22976685 C72.9361725 131.47974811 73.60945337 132.72850209 74.28491211 133.97607422 C75.30435806 135.85995415 76.31582408 137.74794676 77.32617188 139.63671875 C80.0799918 144.76239814 82.84020725 149.85426705 85.98046875 154.7578125 C88 158 88 158 88 160 C81.36154183 160.10128827 74.72328234 160.17141794 68.08422852 160.21972656 C65.82503818 160.23986166 63.56590008 160.26717189 61.30688477 160.30175781 C58.06253179 160.35019162 54.81886683 160.37294976 51.57421875 160.390625 C50.56163498 160.41127014 49.54905121 160.43191528 48.50578308 160.45318604 C47.09465996 160.45363922 47.09465996 160.45363922 45.6550293 160.45410156 C44.82674118 160.46298401 43.99845306 160.47186646 43.14506531 160.48101807 C41 160 41 160 39.18952942 158.11224365 C38 156 38 156 38.3125 153.75 C38.539375 153.1725 38.76625 152.595 39 152 C39.99 152.99 40.98 153.98 42 155 C41.67 155.66 41.34 156.32 41 157 C42.0058313 156.99214478 42.0058313 156.99214478 43.03198242 156.98413086 C46.083812 156.96328395 49.13562656 156.95031531 52.1875 156.9375 C53.24259766 156.92912109 54.29769531 156.92074219 55.38476562 156.91210938 C56.40634766 156.90888672 57.42792969 156.90566406 58.48046875 156.90234375 C59.41785889 156.89710693 60.35524902 156.89187012 61.32104492 156.88647461 C64 157 64 157 66.7199707 157.56860352 C69.02026412 158.24224239 69.02026412 158.24224239 71 157 C68.25565844 149.75798754 64.02784214 143.47550641 59.66381836 137.10839844 C54.73639778 129.89237101 50.26272168 122.4675312 45.9375 114.875 C45.36507568 113.87895752 44.79265137 112.88291504 44.20288086 111.85668945 C43.40442749 110.43876099 43.40442749 110.43876099 42.58984375 108.9921875 C42.11409912 108.15026855 41.63835449 107.30834961 41.14819336 106.44091797 C39.9749603 103.94676867 39.41957017 101.71493711 39 99 C41.41763491 101.21251288 42.91590741 103.39479316 44.453125 106.28125 C45.13024536 107.53760254 45.13024536 107.53760254 45.82104492 108.81933594 C46.2926001 109.70395508 46.76415527 110.58857422 47.25 111.5 C51.23230522 118.86802527 55.32552513 126.04412613 60 133 C59.55527344 132.22914063 59.11054688 131.45828125 58.65234375 130.6640625 C58.08644531 129.66117188 57.52054687 128.65828125 56.9375 127.625 C56.08478516 126.12839844 56.08478516 126.12839844 55.21484375 124.6015625 C54.81394531 123.74304688 54.41304688 122.88453125 54 122 C55 120 55 120 57.5 118.1875 C60.10516775 116.25443421 60.10516775 116.25443421 60.84912109 113.75512695 C61.05688611 109.96123017 59.7851603 108.01988502 57.9140625 104.73046875 C57.58193756 104.13724319 57.24981262 103.54401764 56.90762329 102.93281555 C55.82681463 101.00977941 54.72626288 99.09888319 53.625 97.1875 C52.87465886 95.86142182 52.12563902 94.53459515 51.37792969 93.20703125 C49.91286588 90.61066858 48.44040122 88.01877779 46.95996094 85.43115234 C45.04033449 82.07061047 43.14660511 78.6969333 41.26342773 75.31591797 C39.52525465 72.2013597 37.762579 69.10079185 36 66 C35.54705566 65.20223145 35.09411133 64.40446289 34.62744141 63.58251953 C29.04878583 53.76430615 23.42141937 43.97983635 17.66186523 34.26660156 C14.11937304 28.26489998 10.73375999 22.18051798 7.39794922 16.06176758 C5.11211796 11.89362717 2.69963063 7.91384807 0 4 C-0.27150879 4.49290527 -0.54301758 4.98581055 -0.82275391 5.49365234 C-12.16501405 26.06139873 -12.16501405 26.06139873 -17.73046875 34.6796875 C-18.29378906 35.56914063 -18.85710937 36.45859375 -19.4375 37.375 C-19.95183594 38.16648438 -20.46617187 38.95796875 -20.99609375 39.7734375 C-22.23147419 42.51338635 -21.92798996 43.19564509 -21 46 C-20.19028046 47.73885437 -19.33298489 49.45586828 -18.4453125 51.15625 C-17.91760254 52.17001709 -17.38989258 53.18378418 -16.84619141 54.22827148 C-16.27819824 55.30794189 -15.71020508 56.3876123 -15.125 57.5 C-14.2594751 59.15914429 -14.2594751 59.15914429 -13.37646484 60.85180664 C-10.53227006 66.27961468 -7.64457102 71.67742894 -4.65625 77.02734375 C-3.88837158 78.40212891 -3.88837158 78.40212891 -3.10498047 79.8046875 C-2.13267242 81.53437571 -1.15274261 83.25980575 -0.16455078 84.98046875 C0.26873535 85.74875 0.70202148 86.51703125 1.1484375 87.30859375 C1.53177246 87.97689209 1.91510742 88.64519043 2.31005859 89.33374023 C2.53773926 89.88360596 2.76541992 90.43347168 3 91 C2.67 91.66 2.34 92.32 2 93 C1.67386719 92.36191406 1.34773438 91.72382813 1.01171875 91.06640625 C0.57472656 90.24011719 0.13773438 89.41382813 -0.3125 88.5625 C-0.74175781 87.73878906 -1.17101562 86.91507812 -1.61328125 86.06640625 C-2.90020887 83.69352356 -2.90020887 83.69352356 -6 83 C-5.67 82.34 -5.34 81.68 -5 81 C-6.21134893 78.1904352 -6.21134893 78.1904352 -8.0078125 74.99609375 C-8.49155838 74.1001223 -8.49155838 74.1001223 -8.9850769 73.18605042 C-10.02426241 71.26571173 -11.07448476 69.35165998 -12.125 67.4375 C-12.81061864 66.17422014 -13.49552283 64.91055226 -14.1796875 63.64648438 C-14.85152001 62.4088311 -15.52339451 61.17120062 -16.1953125 59.93359375 C-16.52259338 59.32848969 -16.84987427 58.72338562 -17.18707275 58.09994507 C-18.62828628 55.44968078 -20.09994148 52.837239 -21.67871094 50.26611328 C-25.10458913 44.65516207 -25.10458913 44.65516207 -24.5859375 41.40625 C-24.06257812 40.6121875 -23.53921875 39.818125 -23 39 C-22.35289062 37.8553125 -21.70578125 36.710625 -21.0390625 35.53125 C-20.23746377 34.18565515 -19.4325733 32.84201766 -18.625 31.5 C-13.93097043 23.62126948 -9.36723635 15.67361737 -4.84814453 7.69335938 C-4.36071777 6.83548828 -3.87329102 5.97761719 -3.37109375 5.09375 C-2.7203186 3.94422852 -2.7203186 3.94422852 -2.05639648 2.77148438 C-1 1 -1 1 0 0 Z " fill="#012B7D" transform="translate(187,91)"/>
<path d="M0 0 C4.31687932 3.84466896 6.82438618 9.16886256 9.68994141 14.11499023 C10.74856483 15.93503257 11.82503314 17.74370732 12.90234375 19.55273438 C13.57664668 20.7102824 14.24986163 21.86846503 14.921875 23.02734375 C15.84371582 24.60116821 15.84371582 24.60116821 16.78417969 26.20678711 C18 29 18 29 18.01367188 31.24291992 C16.483965 33.89448552 14.74531003 34.17089657 11.859375 35.0859375 C10.74643066 35.45138672 9.63348633 35.81683594 8.48681641 36.19335938 C7.25366699 36.58330078 6.02051758 36.97324219 4.75 37.375 C2.06160068 38.25779586 -0.62167122 39.15568153 -3.3046875 40.0546875 C-4.36600388 40.40844452 -4.36600388 40.40844452 -5.44876099 40.76934814 C-13.50293396 43.47105939 -21.43918784 46.47129386 -29.375 49.5 C-30.12196136 49.78450012 -30.86892273 50.06900024 -31.63851929 50.36212158 C-35.63633417 51.88527582 -39.6324568 53.41279806 -43.62744141 54.94335938 C-48.5498843 56.82894705 -53.47532482 58.70660995 -58.40118408 60.58325195 C-62.72548836 62.23111381 -67.04893195 63.88122432 -71.37213135 65.53198242 C-73.49007125 66.34056861 -75.60819317 67.14867821 -77.72650146 67.95629883 C-80.69477796 69.08855642 -83.66198493 70.22357191 -86.62890625 71.359375 C-87.51885788 71.69833801 -88.40880951 72.03730103 -89.32572937 72.38653564 C-90.14837784 72.70209412 -90.97102631 73.01765259 -91.81860352 73.34277344 C-92.8903054 73.7524234 -92.8903054 73.7524234 -93.98365784 74.17034912 C-96.04540183 74.97920672 -96.04540183 74.97920672 -98.09336853 76.11920166 C-100.72401882 77.33447186 -102.29421897 76.87755061 -105 76 C-105.33 75.34 -105.66 74.68 -106 74 C-105.25234375 73.59910156 -104.5046875 73.19820313 -103.734375 72.78515625 C-100.86167059 70.90969066 -99.30004206 69.16650898 -97.25 66.4375 C-93.07846222 61.0482817 -88.63611728 55.99274169 -84 51 C-83.46117188 50.40703125 -82.92234375 49.8140625 -82.3671875 49.203125 C-76.56008317 43.07502495 -69.68800297 38.11308614 -63 33 C-62.41863281 32.55205078 -61.83726563 32.10410156 -61.23828125 31.64257812 C-51.55218341 24.18406114 -51.55218341 24.18406114 -48 23 C-49.97050042 28.01581924 -53.65849892 30.27408642 -58.27734375 32.7734375 C-62.10803708 34.94173552 -65.1900411 37.60936803 -68.375 40.625 C-68.90738281 41.11484375 -69.43976563 41.6046875 -69.98828125 42.109375 C-72.87772321 44.75236621 -72.87772321 44.75236621 -75 48 C-76.05767578 48.58201172 -76.05767578 48.58201172 -77.13671875 49.17578125 C-81.00437212 51.63989329 -83.76038359 54.79512535 -86.8125 58.1875 C-87.40998047 58.84169922 -88.00746094 59.49589844 -88.62304688 60.16992188 C-90.08750634 61.77496945 -91.54451007 63.38681423 -93 65 C-92.67 65.66 -92.34 66.32 -92 67 C-92.495 67.99 -92.495 67.99 -93 69 C-86.58632223 67.28875842 -80.75903992 65.09305104 -74.8359375 62.0859375 C-72 61 -72 61 -68.34179688 60.62719727 C-63.78500053 60.09521149 -59.9107329 58.6304754 -55.6953125 56.87890625 C-54.10510211 56.23952912 -52.51426 55.60172137 -50.92285156 54.96533203 C-50.11029907 54.63849426 -49.29774658 54.31165649 -48.46057129 53.97491455 C-44.49589629 52.40405198 -40.49609307 50.93221598 -36.4921875 49.46484375 C-35.3060788 49.02889389 -35.3060788 49.02889389 -34.0960083 48.58413696 C-31.68953131 47.7004834 -29.28232092 46.81885154 -26.875 45.9375 C-23.66376718 44.75991845 -20.45288126 43.58139421 -17.2421875 42.40234375 C-16.46727966 42.11781342 -15.69237183 41.83328308 -14.89398193 41.54013062 C-9.6342186 39.6066077 -4.38059902 37.65720398 0.8671875 35.69140625 C1.83992111 35.32739967 1.83992111 35.32739967 2.83230591 34.95603943 C5.49481483 33.9561492 8.13910107 32.94108704 10.75830078 31.83178711 C13 31 13 31 16 31 C15.55084229 30.20303711 15.10168457 29.40607422 14.63891602 28.58496094 C12.97090843 25.62009419 11.30716674 22.65291714 9.64624023 19.68408203 C8.92722789 18.40090659 8.20653995 17.11866854 7.48413086 15.83740234 C6.44460642 13.99301555 5.41120225 12.14531498 4.37890625 10.296875 C3.44413452 8.63156738 3.44413452 8.63156738 2.49047852 6.93261719 C1.27566151 4.54238265 0.4701366 2.61496095 0 0 Z " fill="#071A3B" transform="translate(177,183)"/>
<path d="M0 0 C-0.62229492 0.3309668 -1.24458984 0.66193359 -1.88574219 1.00292969 C-26.54102057 14.14939555 -49.90724845 27.60054334 -71 46 C-71.7734375 46.66128906 -72.546875 47.32257813 -73.34375 48.00390625 C-77.76891361 51.80784497 -81.93174589 55.81732624 -86 60 C-86.33 58.68 -86.66 57.36 -87 56 C-86.2678125 55.59652344 -85.535625 55.19304687 -84.78125 54.77734375 C-81.92183981 52.95005213 -79.8423682 51.00796539 -77.5 48.5625 C-74.47240623 45.45443863 -71.39853731 42.69883846 -68 40 C-67.54625 39.34 -67.0925 38.68 -66.625 38 C-64.9362253 35.92150806 -63.77845238 35.26434978 -61.4375 34.0625 C-58.66098018 32.59223318 -58.09027822 32.17270615 -56.5625 29.25 C-56.376875 28.5075 -56.19125 27.765 -56 27 C-54.68 27.33 -53.36 27.66 -52 28 C-52 27.34 -52 26.68 -52 26 C-51.01 26 -50.02 26 -49 26 C-49 24.02 -49 22.04 -49 20 C-47.68 20 -46.36 20 -45 20 C-45.66 19.34 -46.32 18.68 -47 18 C-47.68707031 18.22816406 -48.37414062 18.45632812 -49.08203125 18.69140625 C-49.98308594 18.97886719 -50.88414063 19.26632813 -51.8125 19.5625 C-52.70582031 19.85253906 -53.59914062 20.14257812 -54.51953125 20.44140625 C-57 21 -57 21 -60 20 C-52.50357046 16.45700298 -44.94078156 13.38707962 -37.125 10.625 C-36.05233887 10.24359863 -34.97967773 9.86219727 -33.87451172 9.46923828 C-30.58567386 8.30507792 -27.2934229 7.15111844 -24 6 C-22.96101563 5.63455078 -21.92203125 5.26910156 -20.8515625 4.89257812 C-17.94656761 3.87508313 -15.03709005 2.87198247 -12.125 1.875 C-11.24602051 1.56771973 -10.36704102 1.26043945 -9.46142578 0.94384766 C-8.6517334 0.6710498 -7.84204102 0.39825195 -7.0078125 0.1171875 C-6.30285645 -0.12402832 -5.59790039 -0.36524414 -4.87158203 -0.61376953 C-3 -1 -3 -1 0 0 Z " fill="#C5D6E2" transform="translate(173,181)"/>
<path d="M0 0 C2.75717382 2.45751459 4.32369527 5.12260882 6.08203125 8.35546875 C6.67685303 9.44005371 7.2716748 10.52463867 7.88452148 11.64208984 C8.35497391 12.50746368 8.35497391 12.50746368 8.83493042 13.39031982 C10.51078332 16.47123567 12.20421476 19.54243865 13.8984375 22.61328125 C14.24347824 23.23912109 14.58851898 23.86496094 14.9440155 24.50976562 C18.17729939 30.35613452 21.54260733 36.12112735 24.9375 41.875 C30.37180628 51.11049684 35.63138656 60.43346731 40.8125 69.8125 C41.16746552 70.45322449 41.52243103 71.09394897 41.88815308 71.75408936 C42.89329249 73.57009533 43.89464846 75.38812677 44.89453125 77.20703125 C45.47050049 78.2535083 46.04646973 79.29998535 46.63989258 80.37817383 C48 83 48 83 49 86 C51.01508358 86.73323796 51.01508358 86.73323796 53 87 C52.01 87.495 52.01 87.495 51 88 C51.52170776 88.95253662 51.52170776 88.95253662 52.05395508 89.92431641 C53.64126004 92.82393097 55.22689377 95.72445619 56.8125 98.625 C57.63331055 100.12353516 57.63331055 100.12353516 58.47070312 101.65234375 C61.06313715 106.3972836 63.63499131 111.13721019 66 116 C65.01 116.495 65.01 116.495 64 117 C63.42894531 115.89527344 62.85789062 114.79054688 62.26953125 113.65234375 C56.00282278 101.60027315 49.40876425 89.75746037 42.68212891 77.95703125 C40.44921597 74.03177124 38.23322511 70.09707169 36.01660156 66.16259766 C31.09977297 57.43895621 26.13978691 48.7426347 21.10644531 40.08569336 C17.07571556 33.1496878 13.10092759 26.18226489 9.14624023 19.20263672 C6.21779237 14.05481314 3.18449327 8.99366724 0 4 C-0.27150879 4.49290527 -0.54301758 4.98581055 -0.82275391 5.49365234 C-12.16501405 26.06139873 -12.16501405 26.06139873 -17.73046875 34.6796875 C-18.29378906 35.56914063 -18.85710937 36.45859375 -19.4375 37.375 C-19.95183594 38.16648438 -20.46617187 38.95796875 -20.99609375 39.7734375 C-22.23147419 42.51338635 -21.92798996 43.19564509 -21 46 C-20.19028046 47.73885437 -19.33298489 49.45586828 -18.4453125 51.15625 C-17.91760254 52.17001709 -17.38989258 53.18378418 -16.84619141 54.22827148 C-16.27819824 55.30794189 -15.71020508 56.3876123 -15.125 57.5 C-14.2594751 59.15914429 -14.2594751 59.15914429 -13.37646484 60.85180664 C-10.53227006 66.27961468 -7.64457102 71.67742894 -4.65625 77.02734375 C-3.88837158 78.40212891 -3.88837158 78.40212891 -3.10498047 79.8046875 C-2.13267242 81.53437571 -1.15274261 83.25980575 -0.16455078 84.98046875 C0.26873535 85.74875 0.70202148 86.51703125 1.1484375 87.30859375 C1.53177246 87.97689209 1.91510742 88.64519043 2.31005859 89.33374023 C2.53773926 89.88360596 2.76541992 90.43347168 3 91 C2.67 91.66 2.34 92.32 2 93 C1.67386719 92.36191406 1.34773438 91.72382813 1.01171875 91.06640625 C0.57472656 90.24011719 0.13773438 89.41382813 -0.3125 88.5625 C-0.74175781 87.73878906 -1.17101562 86.91507812 -1.61328125 86.06640625 C-2.90020887 83.69352356 -2.90020887 83.69352356 -6 83 C-5.67 82.34 -5.34 81.68 -5 81 C-6.21134893 78.1904352 -6.21134893 78.1904352 -8.0078125 74.99609375 C-8.49155838 74.1001223 -8.49155838 74.1001223 -8.9850769 73.18605042 C-10.02426241 71.26571173 -11.07448476 69.35165998 -12.125 67.4375 C-12.81061864 66.17422014 -13.49552283 64.91055226 -14.1796875 63.64648438 C-14.85152001 62.4088311 -15.52339451 61.17120062 -16.1953125 59.93359375 C-16.52259338 59.32848969 -16.84987427 58.72338562 -17.18707275 58.09994507 C-18.62828628 55.44968078 -20.09994148 52.837239 -21.67871094 50.26611328 C-25.10458913 44.65516207 -25.10458913 44.65516207 -24.5859375 41.40625 C-24.06257812 40.6121875 -23.53921875 39.818125 -23 39 C-22.35289062 37.8553125 -21.70578125 36.710625 -21.0390625 35.53125 C-20.23746377 34.18565515 -19.4325733 32.84201766 -18.625 31.5 C-13.93097043 23.62126948 -9.36723635 15.67361737 -4.84814453 7.69335938 C-4.36071777 6.83548828 -3.87329102 5.97761719 -3.37109375 5.09375 C-2.7203186 3.94422852 -2.7203186 3.94422852 -2.05639648 2.77148438 C-1 1 -1 1 0 0 Z " fill="#1C5071" transform="translate(187,91)"/>
<path d="M0 0 C3.1202346 3.66198962 5.36797583 7.34970668 7.5625 11.625 C11.30585649 18.85199984 15.37451917 25.86232644 19.58227539 32.82861328 C20.04110107 33.60317871 20.49992676 34.37774414 20.97265625 35.17578125 C21.38781494 35.86583252 21.80297363 36.55588379 22.23071289 37.2668457 C22.48457764 37.83878662 22.73844238 38.41072754 23 39 C22.67 39.66 22.34 40.32 22 41 C21.34 40.01 20.68 39.02 20 38 C19.34 38.66 18.68 39.32 18 40 C18.44072211 43.18834905 19.78380843 46.09803305 21 49.0625 C22.07847992 51.69922482 23.09870241 54.29610724 24 57 C24.99 57.66 25.98 58.32 27 59 C27.36474362 60.99451077 27.69240198 62.9958806 28 65 C28.97023605 67.34336674 30.01958215 69.65478735 31.125 71.9375 C31.76459945 73.2707007 32.40391452 74.60403787 33.04296875 75.9375 C33.36958496 76.61296875 33.69620117 77.2884375 34.03271484 77.984375 C35.24466011 80.50982177 36.41699327 83.05246203 37.58886719 85.59667969 C40.71745487 92.3830868 44.0004396 99.07936009 47.42358398 105.72241211 C48.97455667 108.76803616 50.40019392 111.61537997 51 115 C48.41684434 112.67099506 46.92735347 110.29657915 45.3203125 107.22265625 C44.81040771 106.24893066 44.30050293 105.27520508 43.77514648 104.27197266 C43.23059814 103.21284668 42.6860498 102.1537207 42.125 101.0625 C41.55273682 99.95438965 40.98047363 98.8462793 40.39086914 97.70458984 C34.47058123 86.13278684 28.97303985 74.37319712 23.60400391 62.53613281 C22.53257544 60.17409781 21.4567081 57.8140714 20.37646484 55.45605469 C14.13631931 41.82849767 8.39858196 28.24458551 3.7097168 14.00610352 C3.0009306 12.00263046 2.19085077 10.07829512 1.328125 8.13671875 C0.04073204 5.0961995 -0.29528562 3.24814178 0 0 Z " fill="#5DD9FA" transform="translate(187,94)"/>
<path d="M0 0 C3.14011773 2.67755423 4.81474367 6.07892475 6.6875 9.6796875 C7.20316528 10.65435471 7.20316528 10.65435471 7.72924805 11.64871216 C8.82469469 13.72145014 9.91262918 15.79801579 11 17.875 C12.08878014 19.94406801 13.17911991 22.01229979 14.27075195 24.0798645 C14.94834591 25.36436716 15.62406721 26.64986002 16.29760742 27.93649292 C19.55377668 34.388749 19.55377668 34.388749 24 40 C25.03161608 41.98387708 26.03523618 43.98276656 27 46 C20.64624888 46.0253261 14.29251074 46.04285678 7.9387207 46.05493164 C5.77660638 46.05996472 3.61449547 46.06679169 1.45239258 46.07543945 C-1.65284059 46.08754979 -4.7580288 46.09323852 -7.86328125 46.09765625 C-9.31653557 46.10539818 -9.31653557 46.10539818 -10.79914856 46.11329651 C-11.6998558 46.11337204 -12.60056305 46.11344757 -13.52856445 46.11352539 C-14.32132278 46.115746 -15.11408112 46.11796661 -15.93086243 46.12025452 C-18 46 -18 46 -21 45 C-21.495 45.99 -21.495 45.99 -22 47 C-22 46.34 -22 45.68 -22 45 C-23.07596436 45.03915527 -24.15192871 45.07831055 -25.26049805 45.11865234 C-30.89023187 45.11294385 -36.30466782 44.09085535 -41.83203125 43.1015625 C-43.50237679 42.80903091 -43.50237679 42.80903091 -45.20646667 42.5105896 C-47.54766456 42.09865049 -49.88825988 41.68327363 -52.22827148 41.26464844 C-55.81643623 40.62429753 -59.40700241 39.99897494 -62.99804688 39.375 C-65.27620055 38.97225185 -67.55420108 38.5686363 -69.83203125 38.1640625 C-70.9070137 37.97752106 -71.98199615 37.79097961 -73.08955383 37.5987854 C-74.08456406 37.41874969 -75.07957428 37.23871399 -76.10473633 37.05322266 C-77.4175634 36.82005844 -77.4175634 36.82005844 -78.75691223 36.58218384 C-81 36 -81 36 -84 34 C-74.15579367 34.56133931 -64.61716428 36.16862197 -54.9375 37.9375 C-53.44735693 38.20558611 -51.95712281 38.47316666 -50.46679688 38.74023438 C-46.30993961 39.48666428 -42.15484463 40.24244668 -38 41 C-35.81381101 41.39718455 -33.62761443 41.79432731 -31.44140625 42.19140625 C-29.96092115 42.46084767 -28.48044499 42.73033825 -27 43 C-27.35827881 42.42032471 -27.71655762 41.84064941 -28.08569336 41.2434082 C-29.71073265 38.60446678 -31.32418756 35.9586254 -32.9375 33.3125 C-33.78344727 31.94448242 -33.78344727 31.94448242 -34.64648438 30.54882812 C-35.45375977 29.21948242 -35.45375977 29.21948242 -36.27734375 27.86328125 C-36.77484131 27.05157471 -37.27233887 26.23986816 -37.78491211 25.40356445 C-39.0428954 22.91514865 -39.58754401 20.74614483 -40 18 C-37.41074376 20.34786054 -35.8216376 22.81006472 -34.1171875 25.8515625 C-33.58996094 26.78484375 -33.06273437 27.718125 -32.51953125 28.6796875 C-31.97683594 29.65164062 -31.43414062 30.62359375 -30.875 31.625 C-29.7903983 33.55543862 -28.70452942 35.48516602 -27.6171875 37.4140625 C-27.13878418 38.2695166 -26.66038086 39.1249707 -26.16748047 40.00634766 C-25.15316874 41.93111789 -25.15316874 41.93111789 -24 43 C-22.52749355 43.12232644 -21.04934289 43.1777456 -19.57202148 43.20532227 C-18.16067177 43.2352401 -18.16067177 43.2352401 -16.72080994 43.26576233 C-15.69790359 43.28247482 -14.67499725 43.29918732 -13.62109375 43.31640625 C-12.058395 43.3475779 -12.058395 43.3475779 -10.46412659 43.37937927 C-7.12198753 43.44499057 -3.77976715 43.50381331 -0.4375 43.5625 C1.82227418 43.60567422 4.08204001 43.64928814 6.34179688 43.69335938 C11.89444421 43.80068367 17.44717321 43.90242812 23 44 C22.36078613 42.85144531 21.72157227 41.70289063 21.06298828 40.51953125 C15.96963572 31.36299796 10.88559812 22.20215617 5.875 13 C5.30007813 11.95328125 4.72515625 10.9065625 4.1328125 9.828125 C3.59140625 8.83296875 3.05 7.8378125 2.4921875 6.8125 C2.01120605 5.93207031 1.53022461 5.05164063 1.03466797 4.14453125 C0 2 0 2 0 0 Z " fill="#030B26" transform="translate(252,207)"/>
<path d="M0 0 C0 0.99 0 1.98 0 3 C0.66 3 1.32 3 2 3 C0.65984991 6.19035419 -0.48892724 7.6320472 -3.51953125 9.2890625 C-4.21240234 9.67320312 -4.90527344 10.05734375 -5.61914062 10.453125 C-6.34294922 10.83984375 -7.06675781 11.2265625 -7.8125 11.625 C-8.52470703 12.01945313 -9.23691406 12.41390625 -9.97070312 12.8203125 C-12.93007137 14.4409841 -15.80107844 15.92253916 -18.94921875 17.1484375 C-21.17867441 17.8118979 -21.17867441 17.8118979 -22 20 C-23.51266847 20.88488116 -25.06217289 21.70706117 -26.625 22.5 C-31.44845187 25.06206729 -35.98060023 27.88472132 -40.5 30.9375 C-41.13615234 31.36675781 -41.77230469 31.79601562 -42.42773438 32.23828125 C-43.68745328 33.08926843 -44.94689907 33.94066005 -46.20605469 34.79248047 C-48.82748926 36.55698992 -51.4701899 38.28618054 -54.125 40 C-54.95257813 40.53625 -55.78015625 41.0725 -56.6328125 41.625 C-59.02634164 43.01530076 -61.4071765 44.04037849 -64 45 C-62.66666667 43.66666667 -61.33333333 42.33333333 -60 41 C-59.236875 40.175 -58.47375 39.35 -57.6875 38.5 C-53.9105906 34.9865959 -49.99459622 32.73713339 -45.125 30.9375 C-44.42375 30.628125 -43.7225 30.31875 -43 30 C-42.67 29.01 -42.34 28.02 -42 27 C-39.75290773 25.46829642 -37.54294889 24.09387465 -35.1875 22.75 C-34.5169458 22.3588501 -33.8463916 21.9677002 -33.15551758 21.56469727 C-31.77760359 20.76177072 -30.39762032 19.96238514 -29.015625 19.16650391 C-27.13586241 18.07862774 -25.26899152 16.97217394 -23.40625 15.85546875 C-15.25776477 11 -15.25776477 11 -13 11 C-13 10.34 -13 9.68 -13 9 C-12.071875 8.566875 -11.14375 8.13375 -10.1875 7.6875 C-7.48254066 6.2554627 -6.0458389 5.14813084 -4 3 C-3.34 3 -2.68 3 -2 3 C-2 2.34 -2 1.68 -2 1 C-1.34 0.67 -0.68 0.34 0 0 Z " fill="#818C91" transform="translate(118,182)"/>
<path d="M0 0 C0.495 0.99 0.495 0.99 1 2 C0.67 2.99 0.34 3.98 0 5 C0.66 5.33 1.32 5.66 2 6 C1.27083333 7.16666667 0.54166667 8.33333333 -0.1875 9.5 C-0.868125 10.59248047 -0.868125 10.59248047 -1.5625 11.70703125 C-2.49153112 13.18893686 -3.42851361 14.66590041 -4.375 16.13671875 C-6.16655088 18.936017 -7.81371038 21.51098976 -9 24.625 C-10.13465823 27.31981329 -11.78084908 29.19445918 -13.69140625 31.3828125 C-16.10006828 34.35948737 -19 38.09892303 -19 42 C-20.66666667 43.66666667 -22.33333333 45.33333333 -24 47 C-24.69937532 48.31647119 -25.36729133 49.65022151 -26 51 C-28 53.75 -28 53.75 -30 56 C-30.66 56 -31.32 56 -32 56 C-30.3196275 51.38349274 -28.01758489 47.21143768 -25.625 42.9375 C-25.18945801 42.15673096 -24.75391602 41.37596191 -24.30517578 40.5715332 C-16.58336227 26.82735931 -8.31033319 13.39430173 0 0 Z " fill="#676E73" transform="translate(93,151)"/>
<path d="M0 0 C-0.62229492 0.3309668 -1.24458984 0.66193359 -1.88574219 1.00292969 C-16.16934849 8.61910582 -30.21256773 16.51702783 -44 25 C-44.33 24.34 -44.66 23.68 -45 23 C-43.71186658 22.16121545 -42.41936744 21.32913217 -41.125 20.5 C-40.40570313 20.0359375 -39.68640625 19.571875 -38.9453125 19.09375 C-37 18 -37 18 -35 18 C-34.896875 17.21625 -34.79375 16.4325 -34.6875 15.625 C-34 13 -34 13 -31 11 C-31.98742187 11.37253906 -32.97484375 11.74507812 -33.9921875 12.12890625 C-35.28631113 12.60716933 -36.58059011 13.0850122 -37.875 13.5625 C-38.52597656 13.80935547 -39.17695313 14.05621094 -39.84765625 14.31054688 C-41.54497665 14.93173115 -43.27156776 15.47152252 -45 16 C-45.66 15.67 -46.32 15.34 -47 15 C-38.32247973 11.23113318 -29.52698785 7.94737304 -20.58764648 4.86816406 C-18.40598712 4.11410807 -16.22947646 3.34624393 -14.05273438 2.578125 C-12.65914656 2.09550904 -11.26527664 1.6137067 -9.87109375 1.1328125 C-9.22426132 0.90272491 -8.57742889 0.67263733 -7.91099548 0.43557739 C-3.3430916 -1.11436387 -3.3430916 -1.11436387 0 0 Z " fill="#DAF0F7" transform="translate(173,181)"/>
<path d="M0 0 C0.66 0 1.32 0 2 0 C3.5333805 2.59748082 5.05179668 5.20187896 6.5625 7.8125 C7.00013672 8.55048828 7.43777344 9.28847656 7.88867188 10.04882812 C8.29794922 10.76103516 8.70722656 11.47324219 9.12890625 12.20703125 C9.51119385 12.8616333 9.89348145 13.51623535 10.28735352 14.19067383 C11 16 11 16 10 19 C9.67 18.34 9.34 17.68 9 17 C6.50638429 18.20381448 4.31856917 19.45428722 2 21 C-1.99824088 17.33494586 -4.60168569 13.88887148 -7 9 C-6 7 -6 7 -3.5 5.0625 C-0.76426486 3.17703957 -0.76426486 3.17703957 0 0 Z " fill="#097ED0" transform="translate(248,204)"/>
<path d="M0 0 C2.41763491 2.21251288 3.91590741 4.39479316 5.453125 7.28125 C5.90429688 8.11881836 6.35546875 8.95638672 6.8203125 9.81933594 C7.52800781 11.14626465 7.52800781 11.14626465 8.25 12.5 C13.93099116 23.70383616 13.93099116 23.70383616 21 34 C24.90838866 34 26.11594107 32.49432124 29 30 C32.68851835 30.99689685 33.80574807 31.68919691 35.875 35 C36.24625 35.99 36.6175 36.98 37 38 C36.505 38.99 36.505 38.99 36 40 C33.48916886 38.74458443 33.12874554 37.49936512 32 35 C29.792191 36.53827847 29.792191 36.53827847 28 39 C28.14612895 42.69432511 28.14612895 42.69432511 29 46 C24.37568288 43.24382806 21.82715108 40.84655969 18.9375 36.1875 C18.39319336 35.31170288 18.39319336 35.31170288 17.83789062 34.41821289 C14.10567673 28.33030798 10.55071192 22.13236946 7 15.9375 C6.4237085 14.93807373 5.84741699 13.93864746 5.25366211 12.90893555 C4.71620361 11.95801025 4.17874512 11.00708496 3.625 10.02734375 C3.14289063 9.17906006 2.66078125 8.33077637 2.1640625 7.45678711 C0.97856795 4.95476704 0.41913905 2.72714532 0 0 Z " fill="#0660B7" transform="translate(226,190)"/>
<path d="M0 0 C5.18003239 6.73404211 8.33970404 13.01911211 11 21 C11.99 21.66 12.98 22.32 14 23 C14.36474362 24.99451077 14.69240198 26.9958806 15 29 C15.97023605 31.34336674 17.01958215 33.65478735 18.125 35.9375 C18.76459945 37.2707007 19.40391452 38.60403787 20.04296875 39.9375 C20.36958496 40.61296875 20.69620117 41.2884375 21.03271484 41.984375 C22.24466011 44.50982177 23.41699327 47.05246203 24.58886719 49.59667969 C27.71745487 56.3830868 31.0004396 63.07936009 34.42358398 69.72241211 C35.97455667 72.76803616 37.40019392 75.61537997 38 79 C35.41684434 76.67099506 33.92735347 74.29657915 32.3203125 71.22265625 C31.55509277 69.76122192 31.55509277 69.76122192 30.77441406 68.27026367 C29.9579541 66.68242065 29.9579541 66.68242065 29.125 65.0625 C28.55491211 63.95946533 27.98482422 62.85643066 27.39746094 61.7199707 C21.42966755 50.06182249 15.91299197 38.200904 10.49267578 26.27929688 C9.0660708 23.1451526 7.6264778 20.01730091 6.18359375 16.890625 C5.35088852 15.07322532 4.51881367 13.25553662 3.6875 11.4375 C3.30819336 10.61660889 2.92888672 9.79571777 2.53808594 8.94995117 C0 3.3455145 0 3.3455145 0 0 Z " fill="#6FE7FB" transform="translate(200,130)"/>
<path d="M0 0 C0 0.99 0 1.98 0 3 C-3.00545655 5.85884891 -5.65834462 7.8136791 -9.31640625 9.80859375 C-13.1376525 11.95972019 -16.20226282 14.62093999 -19.375 17.625 C-19.90738281 18.11484375 -20.43976563 18.6046875 -20.98828125 19.109375 C-23.87772321 21.75236621 -23.87772321 21.75236621 -26 25 C-26.75667969 25.43957031 -27.51335937 25.87914062 -28.29296875 26.33203125 C-31.23163445 28.14272426 -33.07617618 30.07213825 -35.3125 32.6875 C-36.35857422 33.89986328 -36.35857422 33.89986328 -37.42578125 35.13671875 C-38.20501953 36.05904297 -38.20501953 36.05904297 -39 37 C-39.99 36.34 -40.98 35.68 -42 35 C-33.19715052 25.83593937 -24.17677207 17.60203128 -14 10 C-12.84041349 9.11945317 -11.68155201 8.2379507 -10.5234375 7.35546875 C-2.43437853 1.21718926 -2.43437853 1.21718926 0 0 Z " fill="#071664" transform="translate(128,206)"/>
<path d="M0 0 C0.66 0.33 1.32 0.66 2 1 C0.84886719 1.59425781 -0.30226562 2.18851563 -1.48828125 2.80078125 C-10.07285269 7.26009792 -18.57488167 11.82285416 -26.9375 16.6875 C-27.72543945 17.14584229 -28.51337891 17.60418457 -29.32519531 18.07641602 C-32.82766737 20.12246921 -36.31810752 22.18607257 -39.7890625 24.28515625 C-41.40941406 25.25775391 -41.40941406 25.25775391 -43.0625 26.25 C-43.98160156 26.81203125 -44.90070313 27.3740625 -45.84765625 27.953125 C-46.55792969 28.29859375 -47.26820312 28.6440625 -48 29 C-48.66 28.67 -49.32 28.34 -50 28 C-49.33613281 27.62488281 -48.67226563 27.24976563 -47.98828125 26.86328125 C-47.10527344 26.35152344 -46.22226562 25.83976562 -45.3125 25.3125 C-44.44238281 24.81363281 -43.57226562 24.31476563 -42.67578125 23.80078125 C-39.927217 22.09848164 -39.927217 22.09848164 -37.83984375 19.67578125 C-33.78142466 15.85182379 -29.145491 13.49245586 -24.25 10.875 C-23.29867187 10.35035156 -22.34734375 9.82570312 -21.3671875 9.28515625 C-16.33736979 6.56354256 -11.45651807 4.26088377 -5.96386719 2.64501953 C-3.92127671 2.03723823 -3.92127671 2.03723823 -1.87207031 0.85888672 C-0.94539551 0.43373779 -0.94539551 0.43373779 0 0 Z " fill="#AFB5BB" transform="translate(110,202)"/>
<path d="M0 0 C0.66 0 1.32 0 2 0 C2.45375 0.969375 2.9075 1.93875 3.375 2.9375 C4.65786221 6.07079582 4.65786221 6.07079582 7 7 C7.72640955 9.31543043 8.38431458 11.65269935 9 14 C9.65572791 16.00361307 10.31875294 18.00491933 11 20 C11.66 20 12.32 20 13 20 C13.33 20.99 13.66 21.98 14 23 C14.66 23.33 15.32 23.66 16 24 C16.625 27.0625 16.625 27.0625 17 30 C17.66 30 18.32 30 19 30 C19 30.66 19 31.32 19 32 C19.66 32 20.32 32 21 32 C21.3403125 33.3921875 21.3403125 33.3921875 21.6875 34.8125 C22.9474919 39.33364741 25.01562088 43.44035249 27.07421875 47.64453125 C27.37972656 48.42183594 27.68523437 49.19914062 28 50 C27.67 50.66 27.34 51.32 27 52 C22.98447517 44.67510144 18.98679686 37.34057244 15 30 C14.66760315 29.38801758 14.3352063 28.77603516 13.99273682 28.14550781 C11.91178396 24.31229652 9.83654489 20.47606334 7.76760864 16.63635254 C7.08895321 15.37832137 6.40883648 14.12107742 5.7272644 12.86462402 C4.76732792 11.09418962 3.81321941 9.32059901 2.859375 7.546875 C2.30733398 6.52432617 1.75529297 5.50177734 1.18652344 4.44824219 C0 2 0 2 0 0 Z " fill="#0ED5F7" transform="translate(166,137)"/>
<path d="M0 0 C1.08203125 1.84375 1.08203125 1.84375 2 4 C0.6875 6.5 0.6875 6.5 -1 9 C-1.36162029 10.32594105 -1.69728039 11.65938457 -2 13 C-3.45089848 17.22079558 -6.28099016 18.73625488 -10 21 C-8.68 20.67 -7.36 20.34 -6 20 C-12.15034169 27.48291572 -12.15034169 27.48291572 -16 30 C-15.47045514 24.8369376 -12.88895489 21.02347068 -10.25 16.6875 C-9.81945313 15.96626953 -9.38890625 15.24503906 -8.9453125 14.50195312 C-6.02593754 9.62904432 -3.02568319 4.80745635 0 0 Z " fill="#727A7F" transform="translate(60,207)"/>
<path d="M0 0 C-0.81082031 0.61746094 -1.62164062 1.23492187 -2.45703125 1.87109375 C-12.50803746 9.54799088 -22.33826672 17.39406874 -31.6953125 25.9140625 C-34.74430706 28.67366097 -37.86340547 31.34071334 -41 34 C-41 32.68 -41 31.36 -41 30 C-38.78125 28.52734375 -38.78125 28.52734375 -36 27 C-34.45720882 25.56552121 -32.95720574 24.08384331 -31.5 22.5625 C-28.47240623 19.45443863 -25.39853731 16.69883846 -22 14 C-21.54625 13.34 -21.0925 12.68 -20.625 12 C-18.9362253 9.92150806 -17.77845238 9.26434978 -15.4375 8.0625 C-12.66098018 6.59223318 -12.09027822 6.17270615 -10.5625 3.25 C-10.376875 2.5075 -10.19125 1.765 -10 1 C-8.68 1.33 -7.36 1.66 -6 2 C-6 1.34 -6 0.68 -6 0 C-2.25 -1.125 -2.25 -1.125 0 0 Z " fill="#D9E4E8" transform="translate(127,207)"/>
<path d="M0 0 C0.99 1.98 1.98 3.96 3 6 C2.34 6.33 1.68 6.66 1 7 C0.01 5.68 -0.98 4.36 -2 3 C-7.69308129 4.93731398 -13.38560632 6.87625096 -19.07763672 8.81665039 C-21.01140635 9.47561834 -22.94532346 10.13415364 -24.87939453 10.79223633 C-27.66999195 11.74184457 -30.46004357 12.69304168 -33.25 13.64453125 C-34.10553467 13.9352803 -34.96106934 14.22602936 -35.8425293 14.52558899 C-36.66277588 14.80565292 -37.48302246 15.08571686 -38.328125 15.37426758 C-39.11251953 15.64163727 -39.89691406 15.90900696 -40.70507812 16.18447876 C-42.97049313 16.98951447 -45.19141956 17.87565682 -47.421875 18.7722168 C-51 20 -51 20 -54 19 C-43.43114 14.48566282 -32.64780054 10.80011002 -21.72143555 7.24829102 C-15.68721574 5.27656691 -9.76914538 3.19070637 -3.91918945 0.72119141 C-2 0 -2 0 0 0 Z " fill="#455E73" transform="translate(175,177)"/>
<path d="M0 0 C4.31687932 3.84466896 6.82438618 9.16886256 9.68994141 14.11499023 C10.74856483 15.93503257 11.82503314 17.74370732 12.90234375 19.55273438 C13.57664668 20.7102824 14.24986163 21.86846503 14.921875 23.02734375 C15.53643555 24.07656006 16.15099609 25.12577637 16.78417969 26.20678711 C18 29 18 29 17.95825195 31.2668457 C16.61464838 33.69697099 15.38439438 33.93434866 12.74609375 34.703125 C11.89208984 34.9609375 11.03808594 35.21875 10.15820312 35.484375 C9.26037109 35.73703125 8.36253906 35.9896875 7.4375 36.25 C6.53580078 36.518125 5.63410156 36.78625 4.70507812 37.0625 C2.47403646 37.72354938 0.23955997 38.36853204 -2 39 C-2.66 38.34 -3.32 37.68 -4 37 C-1.23113877 35.99422987 1.53984104 34.99519853 4.3125 34 C5.49102539 33.57074219 5.49102539 33.57074219 6.69335938 33.1328125 C7.45068359 32.86210937 8.20800781 32.59140625 8.98828125 32.3125 C9.68477783 32.06113281 10.38127441 31.80976563 11.09887695 31.55078125 C13 31 13 31 16 31 C15.55084229 30.20303711 15.10168457 29.40607422 14.63891602 28.58496094 C12.97090843 25.62009419 11.30716674 22.65291714 9.64624023 19.68408203 C8.92722789 18.40090659 8.20653995 17.11866854 7.48413086 15.83740234 C6.44460642 13.99301555 5.41120225 12.14531498 4.37890625 10.296875 C3.44413452 8.63156738 3.44413452 8.63156738 2.49047852 6.93261719 C1.27566151 4.54238265 0.4701366 2.61496095 0 0 Z " fill="#072D5A" transform="translate(177,183)"/>
<path d="M0 0 C3.14011773 2.67755423 4.81474367 6.07892475 6.6875 9.6796875 C7.03127686 10.32946564 7.37505371 10.97924377 7.72924805 11.64871216 C8.82469469 13.72145014 9.91262918 15.79801579 11 17.875 C12.08878014 19.94406801 13.17911991 22.01229979 14.27075195 24.0798645 C14.94834591 25.36436716 15.62406721 26.64986002 16.29760742 27.93649292 C19.55377668 34.388749 19.55377668 34.388749 24 40 C25.03161608 41.98387708 26.03523618 43.98276656 27 46 C22.71 46 18.42 46 14 46 C14 45.34 14 44.68 14 44 C16.97 44 19.94 44 23 44 C22.42894531 42.9790625 21.85789062 41.958125 21.26953125 40.90625 C16.0915847 31.62972792 10.96344988 22.325904 5.875 13 C5.29468018 11.94361328 4.71436035 10.88722656 4.11645508 9.79882812 C3.58044678 8.81333984 3.04443848 7.82785156 2.4921875 6.8125 C1.77071533 5.49185547 1.77071533 5.49185547 1.03466797 4.14453125 C0 2 0 2 0 0 Z " fill="#0B1E40" transform="translate(252,207)"/>
<path d="M0 0 C-2.26674424 2.26674424 -3.40582789 2.53597078 -6.46484375 3.2890625 C-7.34720703 3.50820312 -8.22957031 3.72734375 -9.13867188 3.953125 C-10.5240918 4.28570312 -10.5240918 4.28570312 -11.9375 4.625 C-12.85724609 4.85445312 -13.77699219 5.08390625 -14.72460938 5.3203125 C-21.57833426 7 -21.57833426 7 -25 7 C-25 7.66 -25 8.32 -25 9 C-22.69 9.33 -20.38 9.66 -18 10 C-18 10.33 -18 10.66 -18 11 C-23.28 10.67 -28.56 10.34 -34 10 C-34 9.01 -34 8.02 -34 7 C-30.12456031 5.99386888 -26.24679504 4.99730471 -22.36669922 4.00927734 C-21.04898016 3.67233668 -19.73190751 3.33285685 -18.41552734 2.99072266 C-16.51574757 2.49744146 -14.61335769 2.01424787 -12.7109375 1.53125 C-11.56931152 1.23798828 -10.42768555 0.94472656 -9.25146484 0.64257812 C-6.0735737 0.01454017 -3.22917383 -0.11975744 0 0 Z " fill="#061F48" transform="translate(185,230)"/>
<path d="M0 0 C2.04786826 2.04786826 2.61679665 3.21722291 3.62890625 5.8671875 C3.93755615 6.66125 4.24620605 7.4553125 4.56420898 8.2734375 C4.89364502 9.13195312 5.22308105 9.99046875 5.5625 10.875 C8.82318051 19.22624911 12.35308318 27.41406618 16.11743164 35.55029297 C16.47957764 36.33807129 16.84172363 37.12584961 17.21484375 37.9375 C17.53573975 38.62714844 17.85663574 39.31679687 18.18725586 40.02734375 C18.99991808 41.99980117 19.53733538 43.92019021 20 46 C19.34 46 18.68 46 18 46 C16.9112851 43.87761759 15.82905893 41.7522876 14.75 39.625 C14.29947266 38.74908203 14.29947266 38.74908203 13.83984375 37.85546875 C11.65441746 33.5311146 9.79942956 29.12845439 8.03076172 24.61865234 C6.98948096 21.97327636 5.91167958 19.34544587 4.82421875 16.71875 C4.11197917 14.97916667 3.39973958 13.23958333 2.6875 11.5 C2.1296582 10.16195312 2.1296582 10.16195312 1.56054688 8.796875 C1.21443359 7.94609375 0.86832031 7.0953125 0.51171875 6.21875 C0.19678467 5.45498047 -0.11814941 4.69121094 -0.44262695 3.90429688 C-1 2 -1 2 0 0 Z " fill="#0597EE" transform="translate(192,113)"/>
<path d="M0 0 C2.32870156 2.14403021 3.807013 4.20389801 5.27734375 7 C5.70305664 7.79615723 6.12876953 8.59231445 6.56738281 9.41259766 C7.01952148 10.26644043 7.47166016 11.1202832 7.9375 12 C12.3839445 20.28351639 17.18436224 28.24580971 22.37866211 36.08203125 C22.86729736 36.83097656 23.35593262 37.57992187 23.859375 38.3515625 C24.29733398 39.00979004 24.73529297 39.66801758 25.18652344 40.34619141 C25.4549707 40.89194824 25.72341797 41.43770508 26 42 C25.67 42.66 25.34 43.32 25 44 C17.98844588 34.17529955 11.55401283 24.13729926 5.625 13.625 C5.18373779 12.8515625 4.74247559 12.078125 4.2878418 11.28125 C2.20949037 7.54956291 0.46499681 4.32274813 0 0 Z " fill="#00207F" transform="translate(226,190)"/>
<path d="M0 0 C0 0.99 0 1.98 0 3 C0.66 3 1.32 3 2 3 C0.65984991 6.19035419 -0.48892724 7.6320472 -3.51953125 9.2890625 C-4.21240234 9.67320312 -4.90527344 10.05734375 -5.61914062 10.453125 C-6.34294922 10.83984375 -7.06675781 11.2265625 -7.8125 11.625 C-8.52470703 12.01945313 -9.23691406 12.41390625 -9.97070312 12.8203125 C-12.93007137 14.4409841 -15.80107844 15.92253916 -18.94921875 17.1484375 C-21.17867441 17.8118979 -21.17867441 17.8118979 -22 20 C-22.99 19.67 -23.98 19.34 -25 19 C-23.82630859 18.29423828 -23.82630859 18.29423828 -22.62890625 17.57421875 C-21.61699219 16.95160156 -20.60507813 16.32898438 -19.5625 15.6875 C-18.55316406 15.07261719 -17.54382813 14.45773438 -16.50390625 13.82421875 C-13.73729397 12.17948035 -13.73729397 12.17948035 -13 9 C-11.01753602 7.96567096 -9.01586684 6.96761608 -7 6 C-5.98198643 5.01834406 -4.9753197 4.02408568 -4 3 C-3.34 3 -2.68 3 -2 3 C-2 2.34 -2 1.68 -2 1 C-1.34 0.67 -0.68 0.34 0 0 Z " fill="#646D75" transform="translate(118,182)"/>
<path d="M0 0 C-4.77781739 3.18521159 -10.12833822 5.04060957 -15.4375 7.1875 C-17.15549805 7.90196289 -17.15549805 7.90196289 -18.90820312 8.63085938 C-20.00970703 9.07623047 -21.11121094 9.52160156 -22.24609375 9.98046875 C-23.25341553 10.39192139 -24.2607373 10.80337402 -25.29858398 11.22729492 C-28.0816397 12.02335198 -29.33668675 12.01672845 -32 11 C-29.34345343 7.26115668 -27.41889613 5.35021826 -23 4 C-23.33 4.99 -23.66 5.98 -24 7 C-17.41730153 5.2436618 -11.44317997 2.94277213 -5.34765625 -0.109375 C-3 -1 -3 -1 0 0 Z " fill="#042F8B" transform="translate(108,245)"/>
<path d="M0 0 C-11.91964492 4.82479197 -23.84435894 9.64491845 -35.875 14.1875 C-36.65786377 14.49051025 -37.44072754 14.79352051 -38.24731445 15.10571289 C-43.65018726 17.11660425 -43.65018726 17.11660425 -47 16 C-40.5357934 12.84468533 -33.95905218 10.1596535 -27.1875 7.75 C-26.47086182 7.49202637 -25.75422363 7.23405273 -25.01586914 6.96826172 C-21.02536434 5.57230484 -17.21215036 4.5554484 -13 4 C-13 3.34 -13 2.68 -13 2 C-11.39935157 1.46845258 -9.79431126 0.95011647 -8.1875 0.4375 C-7.29417969 0.14746094 -6.40085938 -0.14257812 -5.48046875 -0.44140625 C-3 -1 -3 -1 0 0 Z " fill="#0868C8" transform="translate(178,219)"/>
<path d="M0 0 C-3.56687122 3.04408304 -7.09510916 5.21082201 -11.3125 7.25 C-12.38113281 7.77078125 -13.44976562 8.2915625 -14.55078125 8.828125 C-15.76314453 9.40820312 -15.76314453 9.40820312 -17 10 C-16.34 8.35 -15.68 6.7 -15 5 C-15.84304687 5.30035156 -16.68609375 5.60070312 -17.5546875 5.91015625 C-19.19824219 6.48056641 -19.19824219 6.48056641 -20.875 7.0625 C-21.96554688 7.44535156 -23.05609375 7.82820312 -24.1796875 8.22265625 C-27 9 -27 9 -29 8 C-26.06016709 6.76037046 -23.11723876 5.52954929 -20.16796875 4.3125 C-18.35056331 3.55954288 -16.53747291 2.79549752 -14.73828125 2 C-9.70121014 -0.12517402 -5.35686751 -0.33480422 0 0 Z " fill="#D4E6F0" transform="translate(155,188)"/>
<path d="M0 0 C0.99 0.99 1.98 1.98 3 3 C2.67 3.66 2.34 4.32 2 5 C9.59 5 17.18 5 25 5 C25 5.99 25 6.98 25 8 C21.22942453 8.11597653 17.45930607 8.18717396 13.6875 8.25 C12.61564453 8.28351563 11.54378906 8.31703125 10.43945312 8.3515625 C8.89741211 8.37089844 8.89741211 8.37089844 7.32421875 8.390625 C6.37635498 8.41157227 5.42849121 8.43251953 4.4519043 8.45410156 C2 8 2 8 0.14770508 6.11621094 C-1 4 -1 4 -0.6875 1.75 C-0.460625 1.1725 -0.23375 0.595 0 0 Z " fill="#074BA3" transform="translate(226,243)"/>
<path d="M0 0 C0.33 0.66 0.66 1.32 1 2 C-0.1081543 4.24316406 -0.1081543 4.24316406 -1.82421875 7.015625 C-2.44103516 8.01980469 -3.05785156 9.02398437 -3.69335938 10.05859375 C-4.68045898 11.63833984 -4.68045898 11.63833984 -5.6875 13.25 C-6.32623047 14.28769531 -6.96496094 15.32539063 -7.62304688 16.39453125 C-10.66524154 21.32118776 -13.74058121 26.21401798 -17 31 C-17.33 30.01 -17.66 29.02 -18 28 C-18.66 28.66 -19.32 29.32 -20 30 C-19.58578031 25.16743695 -17.53586014 23.17320782 -14 20 C-14 20.99 -14 21.98 -14 23 C-13.41714233 22.00818726 -13.41714233 22.00818726 -12.82250977 20.99633789 C-11.07074141 18.01746643 -9.31665288 15.03996787 -7.5625 12.0625 C-6.95083984 11.02158203 -6.33917969 9.98066406 -5.70898438 8.90820312 C-5.12568359 7.91884766 -4.54238281 6.92949219 -3.94140625 5.91015625 C-3.40201416 4.99371338 -2.86262207 4.07727051 -2.30688477 3.13305664 C-1 1 -1 1 0 0 Z " fill="#4D5B65" transform="translate(140,151)"/>
<path d="M0 0 C-0.61875 0.4125 -1.2375 0.825 -1.875 1.25 C-4.12097125 2.81923777 -4.12097125 2.81923777 -4.875 5.125 C-5.24625 5.74375 -5.6175 6.3625 -6 7 C-9.125 7.75 -9.125 7.75 -12 8 C-12.33 7.34 -12.66 6.68 -13 6 C-15.02463255 5.34786708 -15.02463255 5.34786708 -17 5 C-17 4.34 -17 3.68 -17 3 C-14.73194205 2.30190555 -12.46133393 1.61628983 -10.1875 0.9375 C-9.54490234 0.73833984 -8.90230469 0.53917969 -8.24023438 0.33398438 C-3.33984375 -1.11328125 -3.33984375 -1.11328125 0 0 Z " fill="#032573" transform="translate(177,234)"/>
<path d="M0 0 C2 1 2 1 3 3 C2.8453125 4.18142578 2.8453125 4.18142578 2.6875 5.38671875 C2.790625 6.24910156 2.89375 7.11148438 3 8 C5.64235827 10.14895126 5.64235827 10.14895126 9 11.8125 C10.11375 12.41707031 11.2275 13.02164063 12.375 13.64453125 C13.674375 14.31548828 13.674375 14.31548828 15 15 C14.01 15.495 14.01 15.495 13 16 C11.35180664 15.30322266 11.35180664 15.30322266 9.41015625 14.1640625 C8.70826172 13.75929687 8.00636719 13.35453125 7.28320312 12.9375 C6.55037109 12.504375 5.81753906 12.07125 5.0625 11.625 C3.61720371 10.78159102 2.17063625 9.94035568 0.72265625 9.1015625 C0.08078369 8.72338379 -0.56108887 8.34520508 -1.22241211 7.95556641 C-3.14512553 6.85681649 -3.14512553 6.85681649 -6 6 C-5 3 -5 3 -2.5625 1.25 C-1.716875 0.8375 -0.87125 0.425 0 0 Z " fill="#4E545A" transform="translate(47,236)"/>
<path d="M0 0 C0.88068649 0.00022659 1.76137299 0.00045319 2.66874695 0.00068665 C3.61570938 0.0161705 4.56267181 0.03165436 5.53833008 0.04760742 C6.51071121 0.05185226 7.48309235 0.05609711 8.48493958 0.06047058 C11.59286099 0.07727302 14.70013567 0.11492838 17.80786133 0.15307617 C19.91397176 0.16812097 22.02009235 0.18180973 24.1262207 0.1940918 C29.29118371 0.22718173 34.45566284 0.27897508 39.62036133 0.34057617 C39.62036133 1.66057617 39.62036133 2.98057617 39.62036133 4.34057617 C39.12536133 3.35057617 39.12536133 3.35057617 38.62036133 2.34057617 C24.10036133 2.34057617 9.58036133 2.34057617 -5.37963867 2.34057617 C-6.03963867 3.66057617 -6.69963867 4.98057617 -7.37963867 6.34057617 C-7.37963867 3.34057617 -7.37963867 3.34057617 -6.15336609 1.67436218 C-3.93045087 0.00280138 -2.76126075 -0.02373577 0 0 Z " fill="#535A5D" transform="translate(142.379638671875,79.659423828125)"/>
<path d="M0 0 C-0.99 0.66 -1.98 1.32 -3 2 C-2.01 2.33 -1.02 2.66 0 3 C-9.8597561 9.27439024 -9.8597561 9.27439024 -14.4375 8.6875 C-14.953125 8.460625 -15.46875 8.23375 -16 8 C-15.01 7.34 -14.02 6.68 -13 6 C-13.928125 6.515625 -14.85625 7.03125 -15.8125 7.5625 C-19 9 -19 9 -22 8 C-18.90352475 6.46312518 -15.79674718 4.94834718 -12.6875 3.4375 C-11.80642578 2.99986328 -10.92535156 2.56222656 -10.01757812 2.11132812 C-9.17001953 1.70205078 -8.32246094 1.29277344 -7.44921875 0.87109375 C-6.66893311 0.48880615 -5.88864746 0.10651855 -5.0847168 -0.28735352 C-3 -1 -3 -1 0 0 Z " fill="#818C97" transform="translate(121,198)"/>
<path d="M0 0 C0.66 0.33 1.32 0.66 2 1 C-13.02253485 11.42341502 -13.02253485 11.42341502 -20.375 16.25 C-21.22835937 16.81203125 -22.08171875 17.3740625 -22.9609375 17.953125 C-23.63382813 18.29859375 -24.30671875 18.6440625 -25 19 C-25.66 18.67 -26.32 18.34 -27 18 C-25.948125 17.278125 -24.89625 16.55625 -23.8125 15.8125 C-21.38151714 14.08728635 -19.44159526 12.44159526 -17.3125 10.3125 C-14.55126635 7.55126635 -12.23469603 6.45488801 -8.625 5.125 C-5.46814256 3.7720611 -2.81108154 1.96121968 0 0 Z " fill="#585E65" transform="translate(81,208)"/>
<path d="M0 0 C4.76838831 5.59052422 7.07843575 10.95426442 9 18 C9.64199649 19.67632417 10.29894157 21.34750513 11 23 C7.87413567 21.95804522 6.97351624 21.52823432 5 19 C3.8671875 15.8984375 3.8671875 15.8984375 2.875 12.375 C2.02049467 8.38110157 2.02049467 8.38110157 0 5 C-0.04063832 3.33382885 -0.042721 1.66611905 0 0 Z " fill="#49CEF3" transform="translate(187,94)"/>
<path d="M0 0 C3.51879289 4.11739214 6.17115167 8.48751626 8.8125 13.1875 C9.44188477 14.27321289 9.44188477 14.27321289 10.08398438 15.38085938 C11.12155299 17.21839852 12.06890531 19.10628371 13 21 C12.67 21.66 12.34 22.32 12 23 C10.30907983 20.20998171 8.66459796 17.40493187 7.0625 14.5625 C5.18920291 11.26433987 3.13878476 8.13179198 1 5 C-1.31 5.66 -3.62 6.32 -6 7 C-6.66 6.34 -7.32 5.68 -8 5 C-2.25 2 -2.25 2 0 2 C0 1.34 0 0.68 0 0 Z " fill="#0A74D3" transform="translate(173,179)"/>
<path d="M0 0 C0.6875 1.8125 0.6875 1.8125 1 4 C0.01870674 5.01836316 -0.98427615 6.01597507 -2 7 C-3.0759981 8.74461521 -3.0759981 8.74461521 -3.97265625 10.65234375 C-4.31490234 11.34650391 -4.65714844 12.04066406 -5.00976562 12.75585938 C-5.35716797 13.47580078 -5.70457031 14.19574219 -6.0625 14.9375 C-6.41376953 15.65357422 -6.76503906 16.36964844 -7.12695312 17.10742188 C-7.78281078 18.44517311 -8.43618443 19.78414732 -9.08618164 21.12475586 C-9.53852173 22.05300171 -9.53852173 22.05300171 -10 23 C-10.49004517 24.04522827 -10.49004517 24.04522827 -10.98999023 25.11157227 C-12 27 -12 27 -14 29 C-14.90912519 26.52653684 -15.15326139 25.38704005 -14.16723633 22.89697266 C-13.72661865 22.1601123 -13.28600098 21.42325195 -12.83203125 20.6640625 C-12.35056641 19.84679687 -11.86910156 19.02953125 -11.37304688 18.1875 C-10.85806641 17.341875 -10.34308594 16.49625 -9.8125 15.625 C-9.31685547 14.78710938 -8.82121094 13.94921875 -8.31054688 13.0859375 C-5.66254004 8.6364465 -2.91843861 4.27666182 0 0 Z " fill="#04C5FA" transform="translate(179,108)"/>
<path d="M0 0 C1 3 1 3 -0.35522461 5.72729492 C-1.03077393 6.80084229 -1.70632324 7.87438965 -2.40234375 8.98046875 C-2.75889542 9.55332108 -3.11544708 10.1261734 -3.48280334 10.71638489 C-4.62482968 12.54627024 -5.78088474 14.36680861 -6.9375 16.1875 C-7.71383058 17.42584352 -8.48923325 18.66476928 -9.26367188 19.90429688 C-11.16505696 22.94302985 -13.07912488 25.97353979 -15 29 C-15.33 28.34 -15.66 27.68 -16 27 C-15.30322266 25.36767578 -15.30322266 25.36767578 -14.1640625 23.4453125 C-13.75929687 22.74792969 -13.35453125 22.05054688 -12.9375 21.33203125 C-12.2878125 20.23955078 -12.2878125 20.23955078 -11.625 19.125 C-10.7794524 17.6926936 -9.93815192 16.25786963 -9.1015625 14.8203125 C-8.72338379 14.18367676 -8.34520508 13.54704102 -7.95556641 12.89111328 C-6.9690105 10.93867025 -6.5140432 9.11716561 -6 7 C-4.58984375 5.078125 -4.58984375 5.078125 -2.9375 3.25 C-2.38964844 2.63640625 -1.84179688 2.0228125 -1.27734375 1.390625 C-0.85582031 0.93171875 -0.43429688 0.4728125 0 0 Z " fill="#EAEFF0" transform="translate(144,141)"/>
<path d="M0 0 C1 3 1 3 0.25 4.9453125 C-3.04688596 10.69425739 -6.7978926 15.87754631 -11 21 C-11.33 20.34 -11.66 19.68 -12 19 C-11.03567924 17.31243867 -10.0268343 15.6502694 -9 14 C-8.566875 12.88625 -8.13375 11.7725 -7.6875 10.625 C-5.71602161 6.38997235 -3.17309571 3.37847407 0 0 Z " fill="#BDC3C7" transform="translate(127,98)"/>
<path d="M0 0 C0.33 0.66 0.66 1.32 1 2 C-0.32348633 4.70556641 -0.32348633 4.70556641 -2.33203125 8.1015625 C-2.68383957 8.69802582 -3.03564789 9.29448914 -3.39811707 9.9090271 C-4.14500426 11.17054075 -4.89596528 12.42964988 -5.65063477 13.68652344 C-6.8080993 15.6176578 -7.94874711 17.55801512 -9.08789062 19.5 C-9.81411442 20.72194294 -10.5412961 21.94331719 -11.26953125 23.1640625 C-12.26883667 24.84169678 -12.26883667 24.84169678 -13.28833008 26.55322266 C-13.85318115 27.36065918 -14.41803223 28.1680957 -15 29 C-15.66 29 -16.32 29 -17 29 C-15.61904948 25.20580426 -13.85302485 22.048996 -11.625 18.6875 C-9.09224804 14.7913619 -6.90193767 10.91706368 -4.91015625 6.7265625 C-3.58792907 4.21830322 -1.86051142 2.12629877 0 0 Z " fill="#DEE7EA" transform="translate(176,88)"/>
<path d="M0 0 C1 1 2 2 3 3 C3.8353125 3.7734375 3.8353125 3.7734375 4.6875 4.5625 C6 6 6 6 6 8 C6.66 8 7.32 8 8 8 C8 8.99 8 9.98 8 11 C8.66 11.33 9.32 11.66 10 12 C10.72159424 13.64363134 11.39351421 15.31050386 12 17 C10.68 17 9.36 17 8 17 C6.66161267 14.54429825 5.32913768 12.08570084 4 9.625 C3.6184375 8.92632812 3.236875 8.22765625 2.84375 7.5078125 C0 2.2265625 0 2.2265625 0 0 Z " fill="#0C4081" transform="translate(199,201)"/>
<path d="M0 0 C4.15846205 3.51366681 5.99141484 7.64636338 8.1875 12.5 C8.54263672 13.25925781 8.89777344 14.01851562 9.26367188 14.80078125 C10.82539416 18.18500676 12.1809786 21.35177058 13 25 C12.34 25 11.68 25 11 25 C9.16038326 21.21135025 7.32937928 17.41860225 5.5 13.625 C4.97535156 12.54476562 4.45070312 11.46453125 3.91015625 10.3515625 C3.16572266 8.8046875 3.16572266 8.8046875 2.40625 7.2265625 C1.71499023 5.79691162 1.71499023 5.79691162 1.00976562 4.33837891 C0 2 0 2 0 0 Z " fill="#92F4FE" transform="translate(210,153)"/>
<path d="M0 0 C0 0.99 0 1.98 0 3 C-3.99498559 6.80010824 -8.19954664 9.33308147 -13 12 C-14.35387289 12.97201131 -15.69855198 13.95884159 -17 15 C-17 14.01 -17 13.02 -17 12 C-15.65478516 10.66552734 -15.65478516 10.66552734 -13.7890625 9.3359375 C-13.12132813 8.85382813 -12.45359375 8.37171875 -11.765625 7.875 C-11.05921875 7.38 -10.3528125 6.885 -9.625 6.375 C-8.92632812 5.87226563 -8.22765625 5.36953125 -7.5078125 4.8515625 C-2.41155134 1.20577567 -2.41155134 1.20577567 0 0 Z " fill="#061A7A" transform="translate(128,206)"/>
<path d="M0 0 C0.99 1.98 1.98 3.96 3 6 C2.01 6.495 2.01 6.495 1 7 C0.01 5.68 -0.98 4.36 -2 3 C-2.97582031 3.3609375 -3.95164063 3.721875 -4.95703125 4.09375 C-6.24209569 4.56275162 -7.52725704 5.03148779 -8.8125 5.5 C-9.77639648 5.85771484 -9.77639648 5.85771484 -10.75976562 6.22265625 C-13.64933739 7.27068746 -15.90076061 8 -19 8 C-19 7.34 -19 6.68 -19 6 C-16.20964954 4.99619084 -13.41785145 3.9968055 -10.625 3 C-9.43390625 2.57074219 -9.43390625 2.57074219 -8.21875 2.1328125 C-7.45820313 1.86210937 -6.69765625 1.59140625 -5.9140625 1.3125 C-4.8614624 0.93544922 -4.8614624 0.93544922 -3.78759766 0.55078125 C-2 0 -2 0 0 0 Z " fill="#1B5279" transform="translate(175,177)"/>
<path d="M0 0 C2.2477975 2.05233685 3.0022242 3.00667261 4 6 C3.34 6.66 2.68 7.32 2 8 C2 7.34 2 6.68 2 6 C1.32453125 6.144375 0.6490625 6.28875 -0.046875 6.4375 C-0.93890625 6.623125 -1.8309375 6.80875 -2.75 7 C-4.07257813 7.2784375 -4.07257813 7.2784375 -5.421875 7.5625 C-8 8 -8 8 -12 8 C-12 7.34 -12 6.68 -12 6 C-8.04 4.68 -4.08 3.36 0 2 C0 1.34 0 0.68 0 0 Z " fill="#061F4C" transform="translate(209,219)"/>
<path d="M0 0 C0.33 0.66 0.66 1.32 1 2 C0.00390625 4.1640625 0.00390625 4.1640625 -1.4375 6.625 C-1.91058594 7.44226563 -2.38367188 8.25953125 -2.87109375 9.1015625 C-3.24363281 9.72804687 -3.61617188 10.35453125 -4 11 C-3.34 11.33 -2.68 11.66 -2 12 C-3.92576115 14.43929746 -5.80090595 16.80090595 -8 19 C-8.66 19 -9.32 19 -10 19 C-8.40376856 14.60616294 -6.21975667 10.71004193 -3.875 6.6875 C-3.50246094 6.04232422 -3.12992187 5.39714844 -2.74609375 4.73242188 C-1.83367787 3.15324055 -0.91724491 1.57638136 0 0 Z " fill="#61666C" transform="translate(71,188)"/>
<path d="M0 0 C0.66 0 1.32 0 2 0 C2 0.66 2 1.32 2 2 C2.66 2 3.32 2 4 2 C4.226875 2.928125 4.45375 3.85625 4.6875 4.8125 C5.9474919 9.33364741 8.01562088 13.44035249 10.07421875 17.64453125 C10.37972656 18.42183594 10.68523437 19.19914062 11 20 C10.67 20.66 10.34 21.32 10 22 C8.50939242 19.46446145 7.03251938 16.92243874 5.5625 14.375 C5.14162109 13.66214844 4.72074219 12.94929687 4.28710938 12.21484375 C1.94499448 8.13019538 0.41502823 4.78414355 0 0 Z " fill="#0DA4E9" transform="translate(183,167)"/>
<path d="M0 0 C0 3.55157911 -0.99418238 5.48763755 -2.5 8.6875 C-3.19609375 10.17830078 -3.19609375 10.17830078 -3.90625 11.69921875 C-4.2671875 12.45847656 -4.628125 13.21773437 -5 14 C-5.99 13.34 -6.98 12.68 -8 12 C-6.07776117 6.8403063 -4.19813062 3.74427866 0 0 Z " fill="#B9C1C4" transform="translate(136,84)"/>
<path d="M0 0 C0.33 0.99 0.66 1.98 1 3 C1.33 3 1.66 3 2 3 C2.66 3.33 3.32 3.66 4 4 C1.03 6.97 -1.94 9.94 -5 13 C-6 10 -6 10 -4.78515625 7.51953125 C-4.21667969 6.62621094 -3.64820313 5.73289063 -3.0625 4.8125 C-2.49660156 3.91144531 -1.93070313 3.01039063 -1.34765625 2.08203125 C-0.90292969 1.39496094 -0.45820312 0.70789063 0 0 Z " fill="#3E4249" transform="translate(50,224)"/>
<path d="M0 0 C3.24822479 2.77687356 5.12183056 6.39061382 7.1875 10.0625 C7.55552734 10.69994141 7.92355469 11.33738281 8.30273438 11.99414062 C11 16.74312964 11 16.74312964 11 19 C8 18 8 18 6.83203125 16.00390625 C6.49558594 15.19824219 6.15914062 14.39257812 5.8125 13.5625 C5.46832031 12.75941406 5.12414062 11.95632812 4.76953125 11.12890625 C4 9 4 9 4 7 C3.34 7 2.68 7 2 7 C1.34 4.69 0.68 2.38 0 0 Z " fill="#77E4F4" transform="translate(210,135)"/>
<path d="M0 0 C0.66 0.33 1.32 0.66 2 1 C2 2.65 2 4.3 2 6 C-2.43076923 8.09230769 -2.43076923 8.09230769 -5.3125 7.625 C-5.869375 7.41875 -6.42625 7.2125 -7 7 C-4.78071806 4.09197539 -3.07030857 2.04687238 0 0 Z " fill="#001871" transform="translate(83,249)"/>
<path d="M0 0 C0.99 0 1.98 0 3 0 C4.06775224 1.96466413 5.06553465 3.96855359 6 6 C5.67 6.66 5.34 7.32 5 8 C2.48916886 6.74458443 2.12874554 5.49936512 1 3 C-0.65 4.98 -2.3 6.96 -4 9 C-4.66 7.68 -5.32 6.36 -6 5 C-5.195625 4.731875 -4.39125 4.46375 -3.5625 4.1875 C-2.716875 3.795625 -1.87125 3.40375 -1 3 C-0.67 2.01 -0.34 1.02 0 0 Z " fill="#054CA1" transform="translate(257,222)"/>
<path d="M0 0 C0.33 0.66 0.66 1.32 1 2 C1.66 2 2.32 2 3 2 C3.33 2.99 3.66 3.98 4 5 C4.66 5.33 5.32 5.66 6 6 C6.8515625 8.50390625 6.8515625 8.50390625 7.625 11.5625 C7.88539063 12.57441406 8.14578125 13.58632812 8.4140625 14.62890625 C8.60742188 15.41136719 8.80078125 16.19382813 9 17 C6.20546094 14.51596528 4.59290588 11.77067154 2.8125 8.5 C2.28269531 7.5409375 1.75289062 6.581875 1.20703125 5.59375 C0 3 0 3 0 0 Z " fill="#13C6F3" transform="translate(176,155)"/>
<path d="M0 0 C0.99 0.33 1.98 0.66 3 1 C3 1.66 3 2.32 3 3 C-4.92 3 -12.84 3 -21 3 C-21 2.67 -21 2.34 -21 2 C-20.39937744 1.97494385 -19.79875488 1.9498877 -19.17993164 1.92407227 C-16.47388563 1.8084472 -13.76821717 1.68557064 -11.0625 1.5625 C-10.11697266 1.52318359 -9.17144531 1.48386719 -8.19726562 1.44335938 C-7.29814453 1.40146484 -6.39902344 1.35957031 -5.47265625 1.31640625 C-4.64000244 1.27974854 -3.80734863 1.24309082 -2.94946289 1.20532227 C-0.99661142 1.20632897 -0.99661142 1.20632897 0 0 Z " fill="#081F61" transform="translate(272,248)"/>
<path d="M0 0 C2.2477975 2.05233685 3.0022242 3.00667261 4 6 C2.68 5.34 1.36 4.68 0 4 C-2.97 8.95 -2.97 8.95 -6 14 C-6.33 13.34 -6.66 12.68 -7 12 C-5.8203125 9.43359375 -5.8203125 9.43359375 -4.125 6.4375 C-3.57070312 5.44621094 -3.01640625 4.45492187 -2.4453125 3.43359375 C-1 1 -1 1 0 0 Z " fill="#205978" transform="translate(187,91)"/>
<path d="M0 0 C0.66 0.33 1.32 0.66 2 1 C-1.96 5.62 -5.92 10.24 -10 15 C-10.66 14.67 -11.32 14.34 -12 14 C-10.18804029 11.85370835 -8.37545906 9.70794722 -6.5625 7.5625 C-6.04623047 6.95083984 -5.52996094 6.33917969 -4.99804688 5.70898438 C-1.11328125 1.11328125 -1.11328125 1.11328125 0 0 Z " fill="#060940" transform="translate(86,242)"/>
<path d="M0 0 C0.33 0.66 0.66 1.32 1 2 C0.67 2.99 0.34 3.98 0 5 C0.66 5.33 1.32 5.66 2 6 C-0.66666667 8.66666667 -3.33333333 11.33333333 -6 14 C-4.7023817 8.70139194 -2.84984298 4.65474354 0 0 Z " fill="#848C91" transform="translate(93,151)"/>
<path d="M0 0 C1.1875 1.6875 1.1875 1.6875 2 4 C0.875 6.6875 0.875 6.6875 -1 9 C-3.1875 9.8125 -3.1875 9.8125 -5 10 C-3.66511872 6.40608886 -2.03977277 3.24509304 0 0 Z " fill="#687075" transform="translate(60,207)"/>
<path d="M0 0 C1.25460729 2.50921458 0.86211613 3.38830225 0.1875 6.0625 C0.01605469 6.77535156 -0.15539062 7.48820313 -0.33203125 8.22265625 C-1 10 -1 10 -3 11 C-3 10.01 -3 9.02 -3 8 C-3.66 8.66 -4.32 9.32 -5 10 C-4.49701212 5.59885603 -2.91227269 3.28804981 0 0 Z " fill="#707981" transform="translate(125,171)"/>
<path d="M0 0 C1.32 0.33 2.64 0.66 4 1 C0.375 7.875 0.375 7.875 -3 9 C-2.01 6.03 -1.02 3.06 0 0 Z " fill="#D7DCDE" transform="translate(104,133)"/>
<path d="M0 0 C0.66 0 1.32 0 2 0 C1.60446947 1.6510403 1.18286103 3.2958515 0.75 4.9375 C0.40195313 6.31228516 0.40195313 6.31228516 0.046875 7.71484375 C-1 10 -1 10 -3.109375 10.81640625 C-3.73328125 10.87699219 -4.3571875 10.93757812 -5 11 C-3.55049545 7.2089881 -1.84827434 3.6125362 0 0 Z " fill="#CBD3D5" transform="translate(156,120)"/>
<path d="M0 0 C0 0.33 0 0.66 0 1 C-4.29 1 -8.58 1 -13 1 C-13 0.34 -13 -0.32 -13 -1 C-11.58566794 -1.2236337 -10.16832382 -1.42826476 -8.75 -1.625 C-7.56664062 -1.79902344 -7.56664062 -1.79902344 -6.359375 -1.9765625 C-3.67847541 -2.00319395 -2.27305911 -1.36592084 0 0 Z " fill="#05192A" transform="translate(279,252)"/>
<path d="M0 0 C0.66 0.33 1.32 0.66 2 1 C2.8515625 3.72265625 2.8515625 3.72265625 3.625 7.0625 C3.88539063 8.16722656 4.14578125 9.27195312 4.4140625 10.41015625 C4.60742188 11.26480469 4.80078125 12.11945313 5 13 C4.34 13 3.68 13 3 13 C2.566875 11.576875 2.566875 11.576875 2.125 10.125 C1.23174891 6.94788422 1.23174891 6.94788422 -1 5 C-0.625 2.375 -0.625 2.375 0 0 Z " fill="#0487E9" transform="translate(187,99)"/>
<path d="M0 0 C0.66 0.33 1.32 0.66 2 1 C1.27683594 1.50660156 1.27683594 1.50660156 0.5390625 2.0234375 C-0.09257813 2.46945313 -0.72421875 2.91546875 -1.375 3.375 C-2.31472656 4.03628906 -2.31472656 4.03628906 -3.2734375 4.7109375 C-5.12380509 6.02808866 -5.12380509 6.02808866 -7 8 C-10 8 -10 8 -12 7 C-10.04754815 5.80285445 -8.08785003 4.61751926 -6.125 3.4375 C-5.03445312 2.77621094 -3.94390625 2.11492187 -2.8203125 1.43359375 C-1.88960937 0.96050781 -0.95890625 0.48742187 0 0 Z " fill="#7E8791" transform="translate(90,214)"/>
<path d="M0 0 C0.33 0.99 0.66 1.98 1 3 C-0.14453125 5.2265625 -0.14453125 5.2265625 -1.8125 7.625 C-2.35519531 8.42164062 -2.89789063 9.21828125 -3.45703125 10.0390625 C-5 12 -5 12 -7 13 C-5.35821735 8.22390502 -2.73453298 4.20617096 0 0 Z " fill="#F2F6F7" transform="translate(122,106)"/>
<path d="M0 0 C0 0.99 0 1.98 0 3 C-3.96 4.98 -7.92 6.96 -12 9 C-12.33 8.34 -12.66 7.68 -13 7 C-8.71 4.69 -4.42 2.38 0 0 Z " fill="#666D77" transform="translate(66,228)"/>
<path d="M0 0 C0 0.99 0 1.98 0 3 C-1.60064843 3.53154742 -3.20568874 4.04988353 -4.8125 4.5625 C-5.70582031 4.85253906 -6.59914063 5.14257812 -7.51953125 5.44140625 C-10 6 -10 6 -13 5 C-11.21046815 4.16209211 -9.41830305 3.32980604 -7.625 2.5 C-6.62726563 2.0359375 -5.62953125 1.571875 -4.6015625 1.09375 C-2 0 -2 0 0 0 Z " fill="#DBE2E7" transform="translate(126,196)"/>
<path d="M0 0 C3.36591427 2.72478774 4.44226276 6.06856792 6 10 C5.01 10.495 5.01 10.495 4 11 C3.34 9.02 2.68 7.04 2 5 C1.01 5 0.02 5 -1 5 C-0.67 3.35 -0.34 1.7 0 0 Z " fill="#004DB4" transform="translate(221,180)"/>
<path d="M0 0 C1 2 1 2 0.328125 4.09375 C-0.02765625 4.8878125 -0.3834375 5.681875 -0.75 6.5 C-1.09546875 7.2940625 -1.4409375 8.088125 -1.796875 8.90625 C-3 11 -3 11 -6 13 C-5.51675181 7.84535266 -2.81389239 4.18449681 0 0 Z " fill="#5A6168" transform="translate(86,167)"/>
<path d="M0 0 C0 0.99 0 1.98 0 3 C-2.5 5.1875 -2.5 5.1875 -5 7 C-5.99 6.34 -6.98 5.68 -8 5 C-4.04 2.525 -4.04 2.525 0 0 Z M-8 7 C-6 8 -6 8 -6 8 Z " fill="#082C91" transform="translate(128,206)"/>
<path d="M0 0 C4.875 4.75 4.875 4.75 6 7 C3.03 7 0.06 7 -3 7 C-1.68 6.34 -0.36 5.68 1 5 C0.67 3.35 0.34 1.7 0 0 Z " fill="#0745A1" transform="translate(259,243)"/>
<path d="M0 0 C3.81300782 3.2870757 5.22972246 6.39727838 7 11 C6.01 11.495 6.01 11.495 5 12 C4.16180842 10.37750059 3.3295884 8.75191503 2.5 7.125 C2.0359375 6.22007812 1.571875 5.31515625 1.09375 4.3828125 C0 2 0 2 0 0 Z " fill="#0A56B4" transform="translate(210,218)"/>
<path d="M0 0 C0.5534764 2.07553648 1 3.84365964 1 6 C-3.31818182 10.65909091 -3.31818182 10.65909091 -6 12 C-4.43358249 7.69235185 -2.31663844 3.93828536 0 0 Z " fill="#868C91" transform="translate(73,187)"/>
<path d="M0 0 C1 2 1 2 0.25 4.5625 C-1 7 -1 7 -4 8 C-3.6875 5.125 -3.6875 5.125 -3 2 C-2.01 1.34 -1.02 0.68 0 0 Z " fill="#767C81" transform="translate(80,175)"/>
<path d="M0 0 C0.66 0 1.32 0 2 0 C1.34 1.98 0.68 3.96 0 6 C-1.65 6.33 -3.3 6.66 -5 7 C-4.67 5.68 -4.34 4.36 -4 3 C-3.34 3 -2.68 3 -2 3 C-1.34 2.01 -0.68 1.02 0 0 Z " fill="#929AA0" transform="translate(129,162)"/>
<path d="M0 0 C2.92869654 2.82410024 5.58427923 5.72152181 8 9 C8 9.66 8 10.32 8 11 C4.50892621 9.83630874 4.14777237 9.11026462 2.3125 6.0625 C1.87550781 5.35222656 1.43851562 4.64195312 0.98828125 3.91015625 C0 2 0 2 0 0 Z " fill="#001564" transform="translate(257,237)"/>
<path d="M0 0 C3.3 0 6.6 0 10 0 C10 1.32 10 2.64 10 4 C9.67 3.34 9.34 2.68 9 2 C6.03 2 3.06 2 0 2 C0 1.34 0 0.68 0 0 Z " fill="#6B767F" transform="translate(172,80)"/>
<path d="M0 0 C2.97 0 5.94 0 9 0 C7.515 1.485 7.515 1.485 6 3 C3.375 2.8125 3.375 2.8125 1 2 C0.67 1.34 0.34 0.68 0 0 Z " fill="#1F283E" transform="translate(71,257)"/>
<path d="M0 0 C1 2 1 2 0.375 4.5 C-1 7 -1 7 -3.625 8.3125 C-4.40875 8.539375 -5.1925 8.76625 -6 9 C-5.01 7.02 -4.02 5.04 -3 3 C-2.34 3 -1.68 3 -1 3 C-0.67 2.01 -0.34 1.02 0 0 Z " fill="#9AA1A8" transform="translate(122,178)"/>
<path d="M0 0 C0 0.99 0 1.98 0 3 C-2.31 4.32 -4.62 5.64 -7 7 C-7 6.01 -7 5.02 -7 4 C-4.69 2.68 -2.38 1.36 0 0 Z " fill="#6D7680" transform="translate(76,222)"/>
<path d="M0 0 C-5.625 4 -5.625 4 -9 4 C-9.33 3.34 -9.66 2.68 -10 2 C-8.71211992 1.46987262 -7.41953322 0.9511671 -6.125 0.4375 C-5.40570313 0.14746094 -4.68640625 -0.14257812 -3.9453125 -0.44140625 C-2 -1 -2 -1 0 0 Z " fill="#BDCCDA" transform="translate(136,195)"/>
<path d="M0 0 C1.98 0 3.96 0 6 0 C3.31158141 2.25245881 1.35358125 3.88213958 -2 5 C-1.34 3.35 -0.68 1.7 0 0 Z " fill="#CDDFEB" transform="translate(140,193)"/>
<path d="M0 0 C4.42857143 5.14285714 4.42857143 5.14285714 5 9 C1.98467075 7.99489025 0.81317149 7.53844009 -1 5 C-0.6875 2.3125 -0.6875 2.3125 0 0 Z " fill="#45C8FC" transform="translate(193,108)"/>
<path d="M0 0 C0.33 0.66 0.66 1.32 1 2 C1.99 2.33 2.98 2.66 4 3 C3.34 3 2.68 3 2 3 C1.67 4.65 1.34 6.3 1 8 C0.34 7.34 -0.32 6.68 -1 6 C-1 2 -1 2 0 0 Z " fill="#92999F" transform="translate(96,146)"/>
<path d="M0 0 C1 2 1 2 0.44140625 3.9453125 C0.15136719 4.66460937 -0.13867188 5.38390625 -0.4375 6.125 C-0.72496094 6.84945312 -1.01242188 7.57390625 -1.30859375 8.3203125 C-1.53675781 8.87460938 -1.76492187 9.42890625 -2 10 C-2.66 9.67 -3.32 9.34 -4 9 C-3.35455571 5.51460083 -1.89865603 2.97180943 0 0 Z " fill="#08D7F9" transform="translate(168,127)"/>
<path d="M0 0 C0.66 0 1.32 0 2 0 C2.625 2.3125 2.625 2.3125 3 5 C2.34 5.99 1.68 6.98 1 8 C0 7 0 7 -0.0625 3.4375 C-0.041875 2.303125 -0.02125 1.16875 0 0 Z " fill="#5AD4F9" transform="translate(191,103)"/>
<path d="M0 0 C-0.66 1.65 -1.32 3.3 -2 5 C-2.99 4.67 -3.98 4.34 -5 4 C-5 3.01 -5 2.02 -5 1 C-3 0 -3 0 0 0 Z " fill="#919FA5" transform="translate(181,84)"/>
<path d="M0 0 C0.6875 1.8125 0.6875 1.8125 1 4 C-0.3125 5.5625 -0.3125 5.5625 -2 7 C-2.66 7.99 -3.32 8.98 -4 10 C-3.43454163 6.04179141 -2.19097652 3.3340947 0 0 Z " fill="#03ADF4" transform="translate(179,108)"/>
<path d="M0 0 C4 1 4 1 4 1 Z " fill="#000F74" transform="translate(189,247)"/>
<path d="M0 0 C0.66 0.66 1.32 1.32 2 2 C1.01 1.67 0.02 1.34 -1 1 C-0.67 0.67 -0.34 0.34 0 0 Z " fill="#C9C9C9" transform="translate(128,175)"/>
<path d="M0 0 C0.99 0.495 0.99 0.495 2 1 C1.67 1.66 1.34 2.32 1 3 C0.67 2.01 0.34 1.02 0 0 Z " fill="#5F9FFF" transform="translate(217,139)"/>
<path d="M0 0 C0.66 0 1.32 0 2 0 C1.67 0.66 1.34 1.32 1 2 C0.67 1.34 0.34 0.68 0 0 Z " fill="#1CE2E2" transform="translate(242,185)"/>
<path d="M0 0 C0.33 0.66 0.66 1.32 1 2 C0.34 1.67 -0.32 1.34 -1 1 C-0.67 0.67 -0.34 0.34 0 0 Z " fill="#1CE2E2" transform="translate(158,180)"/>
<path d="M0 0 C2 1 2 1 2 1 Z " fill="#000000" transform="translate(65,256)"/>
<path d="M0 0 C2 1 2 1 2 1 Z " fill="#3F3F3F" transform="translate(62,254)"/>
<path d="M0 0 C2 1 2 1 2 1 Z " fill="#001F1F" transform="translate(221,253)"/>
<path d="" fill="#003FBF" transform="translate(0,0)"/>
<path d="" fill="#000000" transform="translate(0,0)"/>
<path d="M0 0 C2 1 2 1 2 1 Z " fill="#0000FF" transform="translate(258,210)"/>
<path d="" fill="#0000FF" transform="translate(0,0)"/>
<path d="M0 0 C2 1 2 1 2 1 Z " fill="#55D4D4" transform="translate(146,185)"/>
<path d="" fill="#00BFFF" transform="translate(0,0)"/>
<path d="M0 0 C2 1 2 1 2 1 Z " fill="#3FBFFF" transform="translate(232,167)"/>
<path d="" fill="#00FFFF" transform="translate(0,0)"/>
<path d="M0 0 C2 1 2 1 2 1 Z " fill="#3FBFFF" transform="translate(168,151)"/>
<path d="" fill="#2AD4D4" transform="translate(0,0)"/>
<path d="" fill="#00FFFF" transform="translate(0,0)"/>
<path d="" fill="#94D4D4" transform="translate(0,0)"/>
<path d="" fill="#8C8C8C" transform="translate(0,0)"/>
<path d="" fill="#000000" transform="translate(0,0)"/>
<path d="" fill="#000000" transform="translate(0,0)"/>
<path d="" fill="#000000" transform="translate(0,0)"/>
<path d="" fill="#000000" transform="translate(0,0)"/>
<path d="" fill="#00007F" transform="translate(0,0)"/>
<path d="" fill="#000000" transform="translate(0,0)"/>
<path d="" fill="#000000" transform="translate(0,0)"/>
<path d="" fill="#000000" transform="translate(0,0)"/>
<path d="" fill="#000000" transform="translate(0,0)"/>
<path d="" fill="#000000" transform="translate(0,0)"/>
<path d="" fill="#000000" transform="translate(0,0)"/>
<path d="" fill="#000000" transform="translate(0,0)"/>
<path d="" fill="#000000" transform="translate(0,0)"/>
<path d="" fill="#000000" transform="translate(0,0)"/>
<path d="" fill="#000000" transform="translate(0,0)"/>
<path d="" fill="#000000" transform="translate(0,0)"/>
<path d="" fill="#0000FF" transform="translate(0,0)"/>
<path d="" fill="#007F7F" transform="translate(0,0)"/>
<path d="" fill="#00007F" transform="translate(0,0)"/>
<path d="" fill="#0000FF" transform="translate(0,0)"/>
<path d="" fill="#000000" transform="translate(0,0)"/>
<path d="" fill="#0055AA" transform="translate(0,0)"/>
<path d="" fill="#000000" transform="translate(0,0)"/>
<path d="" fill="#0000FF" transform="translate(0,0)"/>
<path d="" fill="#000000" transform="translate(0,0)"/>
<path d="" fill="#000000" transform="translate(0,0)"/>
<path d="" fill="#7F7F7F" transform="translate(0,0)"/>
<path d="" fill="#00FFFF" transform="translate(0,0)"/>
<path d="" fill="#0000FF" transform="translate(0,0)"/>
<path d="" fill="#007F7F" transform="translate(0,0)"/>
<path d="" fill="#007F7F" transform="translate(0,0)"/>
<path d="" fill="#00FFFF" transform="translate(0,0)"/>
<path d="" fill="#00FFFF" transform="translate(0,0)"/>
<path d="" fill="#0000FF" transform="translate(0,0)"/>
<path d="" fill="#AAAAAA" transform="translate(0,0)"/>
<path d="" fill="#FFFFFF" transform="translate(0,0)"/>
<path d="" fill="#AAAAAA" transform="translate(0,0)"/>
<path d="" fill="#0055AA" transform="translate(0,0)"/>
<path d="" fill="#FFFFFF" transform="translate(0,0)"/>
<path d="" fill="#007F7F" transform="translate(0,0)"/>
<path d="" fill="#FFFFFF" transform="translate(0,0)"/>
<path d="" fill="#3F7FBF" transform="translate(0,0)"/>
<path d="" fill="#FFFFFF" transform="translate(0,0)"/>
<path d="" fill="#FFFFFF" transform="translate(0,0)"/>
<path d="" fill="#FFFFFF" transform="translate(0,0)"/>
<path d="" fill="#000000" transform="translate(0,0)"/>
<path d="" fill="#7F7F7F" transform="translate(0,0)"/>
<path d="" fill="#000000" transform="translate(0,0)"/>
<path d="" fill="#FFFFFF" transform="translate(0,0)"/>
<path d="" fill="#007FBF" transform="translate(0,0)"/>
<path d="" fill="#007FFF" transform="translate(0,0)"/>
<path d="" fill="#7F7F7F" transform="translate(0,0)"/>
<path d="" fill="#00FFFF" transform="translate(0,0)"/>
<path d="" fill="#7F7FFF" transform="translate(0,0)"/>
<path d="" fill="#00FFFF" transform="translate(0,0)"/>
<path d="" fill="#00FFFF" transform="translate(0,0)"/>
<path d="" fill="#00FFFF" transform="translate(0,0)"/>
<path d="" fill="#000000" transform="translate(0,0)"/>
<path d="" fill="#FFFFFF" transform="translate(0,0)"/>
<path d="" fill="#7F7FFF" transform="translate(0,0)"/>
<path d="" fill="#00FFFF" transform="translate(0,0)"/>
<path d="" fill="#00FFFF" transform="translate(0,0)"/>
<path d="" fill="#00FFFF" transform="translate(0,0)"/>
<path d="" fill="#7F7FFF" transform="translate(0,0)"/>
<path d="" fill="#7F7F7F" transform="translate(0,0)"/>
<path d="" fill="#00FFFF" transform="translate(0,0)"/>
<path d="" fill="#FFFFFF" transform="translate(0,0)"/>
<path d="" fill="#3FBFBF" transform="translate(0,0)"/>
<path d="" fill="#7FFFFF" transform="translate(0,0)"/>
<path d="" fill="#FFFFFF" transform="translate(0,0)"/>
<path d="" fill="#00FFFF" transform="translate(0,0)"/>
<path d="" fill="#FFFFFF" transform="translate(0,0)"/>
<path d="" fill="#FFFFFF" transform="translate(0,0)"/>
<path d="" fill="#00FFFF" transform="translate(0,0)"/>
<path d="" fill="#3399CC" transform="translate(0,0)"/>
<path d="" fill="#FFFFFF" transform="translate(0,0)"/>
<path d="" fill="#FFFFFF" transform="translate(0,0)"/>
<path d="" fill="#00FFFF" transform="translate(0,0)"/>
<path d="" fill="#3F7FBF" transform="translate(0,0)"/>
<path d="" fill="#7FFFFF" transform="translate(0,0)"/>
<path d="" fill="#AAAAAA" transform="translate(0,0)"/>
<path d="" fill="#00FFFF" transform="translate(0,0)"/>
<path d="" fill="#7FFFFF" transform="translate(0,0)"/>
<path d="" fill="#7FFFFF" transform="translate(0,0)"/>
<path d="" fill="#00FFFF" transform="translate(0,0)"/>
<path d="" fill="#55AAFF" transform="translate(0,0)"/>
<path d="" fill="#00FFFF" transform="translate(0,0)"/>
<path d="" fill="#FFFFFF" transform="translate(0,0)"/>
<path d="" fill="#FFFFFF" transform="translate(0,0)"/>
<path d="" fill="#FFFFFF" transform="translate(0,0)"/>
<path d="" fill="#00FFFF" transform="translate(0,0)"/>
<path d="" fill="#7F7FFF" transform="translate(0,0)"/>
<path d="" fill="#FFFFFF" transform="translate(0,0)"/>
<path d="" fill="#00FFFF" transform="translate(0,0)"/>
<path d="" fill="#00FFFF" transform="translate(0,0)"/>
<path d="" fill="#00FFFF" transform="translate(0,0)"/>
<path d="" fill="#55AAAA" transform="translate(0,0)"/>
<path d="" fill="#00FFFF" transform="translate(0,0)"/>
<path d="" fill="#FFFFFF" transform="translate(0,0)"/>
<path d="" fill="#FFFFFF" transform="translate(0,0)"/>
<path d="" fill="#7F7F7F" transform="translate(0,0)"/>
<path d="" fill="#000000" transform="translate(0,0)"/>
</svg>
